<?xml version="1.0" encoding="utf-8"?>
<!-- Generator: Adobe Illustrator 23.0.1, SVG Export Plug-In . SVG Version: 6.00 Build 0)  -->
<svg version="1.1" id="Livello_1" xmlns="http://www.w3.org/2000/svg" xmlns:xlink="http://www.w3.org/1999/xlink" x="0px" y="0px"
	 viewBox="0 0 549 527" style="enable-background:new 0 0 549 527;" xml:space="preserve">
<style type="text/css">
	.st0{opacity:0.88;enable-background:new    ;}
	.st1{fill:none;stroke:#000000;stroke-width:13;stroke-miterlimit:10;}
</style>
<g>
	<g>
		<path class="st0" d="M396.32,168.14c-0.06-0.22-0.17-0.44-0.31-0.63l-0.84-1.07l0.21-0.86c0.08-0.3,0.07-0.61-0.01-0.9
			c-5.83-20.15-15.7-39.92-28.52-57.19c-0.19-0.25-0.43-0.44-0.72-0.56l-2.15-0.9c-0.54-0.23-1.19-0.16-1.68,0.19l-1.71,1.17
			c-1.16-1.47-2.37-3.07-3.03-3.95c-2.93-3.22-5.41-6.5-6.51-8c0.08-0.31,0.07-0.64-0.04-0.96l-0.88-2.61
			c-1.71-3.32-7.03-7.7-7.74-8.26c-0.22-0.16-2.24-1.55-3.75-2.14c-1.59-0.62-3.25-0.71-3.43-0.72c-0.35-0.02-0.71,0.08-1.01,0.28
			c-4.63-3.32-14.69-11.4-14.8-11.5c-0.17-0.14-0.37-0.24-0.58-0.3l-2-0.62c-0.65-0.2-1.16-0.18-1.61,0.33
			c-0.02,0.01-0.48,0.31-2.09,0.74c-2.03,0.54-3.83,0.78-5.41,0.99l-0.4,0.06c-2.13,0.27-2.89,1.14-3.14,1.85l-2.91,4.66
			c-0.09,0.14-0.16,0.29-0.2,0.45c-0.07,0.22-0.17,0.77,0.03,1.58c-0.04-0.08-0.08-0.15-0.11-0.23c-0.71-1.55-2.1-2.76-2.52-3.08
			c-3.19-1.82-8.7-1.11-10.91-0.72c-4,0.68-9.4,2.48-10.49,2.9c-0.86,0.33-5.45,1.86-7.82,2.47c-1.38,0.36-2.59,0.72-3.64,1.03
			c-0.76,0.23-1.44,0.43-2.07,0.6c-1.03,0.27-6.22,1.8-15.85,4.67c-3.7,1.09-6.11,1.53-6.09,1.53c-1.25,0.13-2.29,0.18-3.15,0.18
			c-2.51,0-3.42-0.37-3.43-0.35c-0.01-0.04-0.04-0.38-0.04-0.38l0.03-4.11c-0.02-0.25-0.22-2.48-2.14-3.52
			c-1.55-0.84-3.55-1.09-6.28-1.22c-2.93-0.13-6.1,0.16-7.7,0.51c-2.97,0.65-5.34,1.95-7.03,3.84c-2.48,2.76-2.14,5.15-2.12,5.2
			c0,0,0.13,2.41,0.32,4.21c0.07,0.66,0.25,1.22,0.51,1.7c-1.55,0.72-4.14,1.76-8.16,2.94c-7.38,2.17-12.4,2.62-12.45,2.63
			c-0.95,0.08-1.65,0.91-1.58,1.86c0.15,1.96,1.7,10.65,1.87,11.61c0.08,0.49,0.79,4.84,1.11,6.03c0.29,1.13,1.08,3.63,1.09,3.63
			c0.05,0.22,0.58,2.09,2.53,3.01c1.52,0.71,4.37,1.12,7.42-0.07c2.53-1,3.53-2.19,4.49-3.33l1.7-1.99
			c0.02-0.01,1.59-1.42,3.38-0.82c1.67,0.57,2.99,2.44,3.4,3.17c-0.96,0.32-2.14,0.7-3.03,0.94c-1.75,0.47-18.76,5.94-18.76,5.94
			s-6.58,2.11-11.82,3.38c-5.22,1.26-8.12,1.68-9.27,1.76c-1.05,0.07-1.27,0.03-1.3,0.03c0,0,0.05-0.1,0.54-0.96
			c0.04-0.06,0.05-0.13,0.07-0.19c0.01-0.02,0.01-0.03,0.02-0.05c0.11-0.26,0.19-0.53,0.23-0.8c0.02-0.09,0.03-0.16,0.04-0.24
			c0.01-0.14,0.03-0.25,0.03-0.37c0-0.04,0-0.07,0-0.1c0.01-0.25,0-0.45,0-0.45s-0.05-0.12-0.15-0.33
			c-0.05-0.12-0.12-0.26-0.21-0.41c-0.37-0.69-0.98-1.76-1.88-2.75c-0.36-0.39-0.76-0.69-1.15-0.91c-1.19-0.67-2.35-0.65-2.35-0.65
			s-2.95-0.42-8.17,1.78c-5.23,2.2-7.04,4.04-8.13,5.7c-1.09,1.66-0.09,3.59-0.09,3.59c1.26,1.81,3.67,3.89,3.67,3.89l-0.05,0.01
			c-1.64,1.86-5.97,3.6-7.03,4c-0.15,0.05-0.24,0.09-0.24,0.09s-0.1,0.03-0.29,0.1c-1.33,0.46-6.96,2.34-12.07,2.99
			c-2.8,0.35-5.33,0.53-7.17,0.62c2.49-2.47,3.59-5.12,3.64-5.24c2.37-5.82,0.24-11.58-1.05-13.01c-1.2-1.3-3.59-3.08-3.78-3.21
			c-0.84-0.71-2.92-1.57-5.4-0.43c0.24-1.43,0.7-3.17,1.37-4.82c1.14-2.76,3.62-7.6,3.62-7.6c0.15-0.26,3.73-6.38,5.21-10.28
			c1.56-4.08,1.55-7.22,1.55-7.35c0-0.38-0.13-0.76-0.37-1.07c0,0-1.69-2.14-2.61-3.33c2.75,0.6,4.78-0.55,5.16-0.78
			c3.81-2.88,6.18-8.03,6.25-8.19l3.42-6.94c0.26-0.53,0.23-1.17-0.08-1.68l-2.86-4.63c-0.25-0.41-0.66-0.69-1.12-0.79
			c-0.35-0.07-0.92-0.19-4.3,0.96c-1.56,0.53-2.85,1.08-3.76,1.5l-0.94-1.39c-0.05-0.09-0.34-0.39-0.41-0.47
			c-0.78-0.8-2.29-0.91-4.74-0.36c-2.82,0.65-6.84,2.8-8.72,5.3c-1.04,1.38-1.54,2.4-1.78,3.03c-5.08,4.38-9.36,6.45-10.29,6.88
			c-1.72,0.26-2.81,1.09-3,1.22c-4.78,4.04-10.35,10.52-11.06,11.36c-0.24,0.23-0.45,0.55-0.66,0.95c-0.22,0.42-0.95,2.62-0.77,3.58
			c0.01,0.08,0.04,0.16,0.05,0.22c-2.17,2.88-3.57,4.49-4.31,5.29c-0.21,0-0.43,0.01-0.65,0.04c-0.85,0.25-2.41,1.21-3.04,1.61
			c-0.19,0.12-0.35,0.28-0.48,0.46c-1.33,1.89-4.4,6.96-5.4,8.62c-0.23,0.11-0.47,0.26-0.68,0.4c-0.26,0.01-0.52,0.09-0.76,0.22
			l-2.37,1.33c-0.26,0.15-0.48,0.36-0.63,0.61c-11.06,18.19-18.69,37.98-22.68,58.85c-0.05,0.25-0.04,0.52,0.03,0.77l0.15,0.55
			l-0.62,1.39c-0.06,0.13-0.1,0.27-0.12,0.41c-1.74,10.04-2.63,20.35-2.63,30.67c0,6.73,0.38,13.52,1.13,20.16
			c0.04,0.29,0.14,0.57,0.3,0.8l0.63,0.9l-0.38,0.95c-0.11,0.28-0.15,0.58-0.11,0.88c3.14,23.74,10.92,46.25,23.1,66.91
			c0.12,0.2,0.27,0.38,0.46,0.52l0.23,0.17l0.2,0.69c0.04,0.15,0.1,0.3,0.18,0.43C103.64,360.79,160.78,393,223.79,393
			c45.01,0,88.01-16.8,121.08-47.3c32.87-30.33,53.07-71.48,56.86-115.87c0.02-0.27-0.02-0.55-0.12-0.8l-0.47-1.12l0.62-1.03
			c0.14-0.23,0.22-0.5,0.24-0.78c0.25-3.93,0.38-7.87,0.38-11.7C402.38,198.7,400.34,183.14,396.32,168.14z M396.93,192.46
			c0.24-0.24,0.39-0.69,0.35-1.82c0.61,4.46,1.04,8.95,1.3,13.46c-0.3,0.66-0.42,2.09-0.42,2.09s-0.23,1.62-0.54,1.59
			c-0.08-0.01-0.19-0.01-0.33-0.08c-0.43-0.22-1.1-1.09-1.62-4.82c-0.69-4.98-0.54-10.23-0.54-10.23s-0.15-0.54,0.16-0.66
			c0.31-0.11,0.65,0.35,0.65,0.35S396.39,193,396.93,192.46z M393.06,169.39c0.74,2.79,1.35,5.63,1.96,8.46
			c-0.86-3.57-1.84-6.87-2.59-9.27L393.06,169.39z M392.42,168.57c0.2,0.63,0.4,1.3,0.61,2.01c-0.22-0.71-0.43-1.41-0.62-2.02
			L392.42,168.57z M391.91,167.93l0.07,0.08l-0.57-0.64v0l0.5,0.54C391.9,167.91,391.91,167.93,391.91,167.93z M384.88,146
			c0.03-0.01,0.02-0.04,0.05-0.05c2.65,6.2,4.96,12.51,6.84,18.86c-0.15,0.01-0.29,0-0.45,0.03c-0.06,0.01-0.08,0.04-0.13,0.05
			c-0.01-0.04-0.02-0.06-0.02-0.06s-1.08-3.16-3.58-9.49c-2.2-5.53-2.8-7.91-2.92-8.42c-0.02-0.08-0.03-0.11-0.03-0.11
			S384.5,146.13,384.88,146z M391.39,167.32L391.39,167.32L391.39,167.32L391.39,167.32z M391.16,164.81L391.16,164.81
			c0,0-0.01-0.02-0.01-0.03C391.15,164.8,391.16,164.81,391.16,164.81z M365.12,114.59c0.44-0.22,0.92-0.5,1.32-0.8
			c0.14-0.11,0.23-0.23,0.35-0.35c2.98,4.24,5.78,8.62,8.38,13.11c-0.32,0.05-0.57,0.45,0.07,2.14c0.4,1.07,0.47,1.45,0.39,1.51
			c-0.13,0.09-0.65-0.7-0.65-0.7c-3.21-4.08-9.84-14.89-9.84-14.89l-0.64-0.44L365.12,114.59z M363,115.51
			c0.09-0.04,0.2-0.08,0.29-0.12c0.08-0.03,0.14-0.06,0.21-0.09c0.21-0.08,0.4-0.17,0.58-0.25c0,0,0.04-0.01,0.13-0.05
			c0,0,0,0,0.01,0l0.03,0.05c3.54,5.71,9.87,14.9,9.87,14.9s2.57,3.32,3.14,3.36c0.57,0.04-0.29-2.57-0.29-2.57
			s-0.28-1.05-0.05-1.19c2.37,4.28,4.56,8.65,6.56,13.08l-0.01,0.01c0,0-0.51,0.25-0.51,1.15c0,1.75,1.72,5.75,1.72,5.75
			s3.61,9.18,5.91,15.61c-0.74,0.41-1.18,1.05-2.79,1.31c-2.05,0.33-4.42,1.06-6.74,4.57c-0.7,1.05-0.95,2.18-1,3.25
			c0,0.02-0.01,0.03-0.02,0.05c0,0.07,0.01,0.14,0.01,0.21c0,0.43,0.02,0.84,0.08,1.23c0.01,0.12,0.02,0.23,0.04,0.35
			c0.06,0.33,0.13,0.63,0.21,0.92c0.03,0.11,0.05,0.24,0.08,0.34c0.01,0.02,0.01,0.04,0.03,0.06c0.28,0.91,0.59,1.5,0.59,1.5
			s1.25,2.05,1.85,3.1c0.59,1.06,3.7,7.69,0.13,12.52c0,0-1.91,2.22-5.29,2.98c-2.98,0.66-2.22-2.83-2.53-4.7
			c0,0-0.45-7.91-4.29-12.45c-3.4-3.97-9.53,3.09-12.59,5.44c-2.85,2.18-11.19,10.79-23.18,17.07l-0.43-5.75
			c0,0-0.29-3.09-1.96-7.91c-3.4-9.81-6.73-14.29-6.73-14.29s-1.34-2.88-4.3-4.06c-0.75-0.3-1.58-0.52-2.54-0.52
			c-4.61,0-4.96,4.23-4.96,4.23s-1.08,3.34-2.85,4.37c-1.52,0.88-5.61,3.26-8.41,1.88c-0.4-0.21-0.77-0.47-1.11-0.84
			c-0.53-0.58-0.97-1.2-1.42-1.81c-0.53-0.7-0.99-1.4-1.41-2.13c-1.45-2.52-2.34-5.17-2.58-7.75c-0.36-3.99,1.28-5.6,1.28-5.6
			s0.33-1.03,5.59-1.03c5.9,0,6.98-1.82,6.98-1.82s1.12-1.03,1.04-3.34c-0.09-2.31-0.99-7.27-2.7-10.41
			c-0.24-0.43-0.57-0.95-0.92-1.46c-1.29-1.97-3.22-4.41-4.93-6.39l-3.18-0.58l3.18,0.57c2.05-0.76,4.88-1.88,7.93-3.25
			c6.23-2.81,9.2-5.16,12.06-6.79c0,0,6.3-3.88,10.01-3.78c0.01,0,0.86-0.03,0.95,1.11c0.08,1.13,0.37,2.82,0.75,3.8
			c0.39,0.97,2.55,6.32,9.46,7.11c0.87,0.1,1.67,0.11,2.42,0.06c0.41-0.03,0.76-0.12,1.13-0.18c0.3-0.05,0.64-0.08,0.91-0.14
			c0.53-0.14,0.98-0.32,1.43-0.51c0.08-0.03,0.19-0.06,0.27-0.09c0.46-0.22,0.87-0.45,1.25-0.7c0.04-0.02,0.09-0.04,0.12-0.07
			c1.61-1.07,2.34-2.24,2.34-2.24s2.37-3.63-1.71-7.96c0,0-3.33-3.57-3.42-3.84c0,0-0.2-0.32,0.15-0.59
			c0.1-0.08,0.22-0.15,0.42-0.21c0.59-0.17,4.72-1.33,8.68-2.61C359.8,116.7,361.61,116.08,363,115.51z M341.3,228.56
			c1.83,3.78,5.9,4.17,8.83,3.44c2.95-0.74,3.92-2.36,5.56-5.9c1.62-3.53,2.5-3.78,2.5-3.78s0.66-0.94,3.65-0.59
			c2.99,0.34,3.64,2.46,3.64,2.46s1.73,4.08,1.37,8.36c-0.33,4.27-1.27,6.19-2.25,7.71c-0.99,1.53-6.11,1.03-6.11,1.03
			s-8.79-0.98-9.58,9.59c-0.79,10.56,2.75,17.89,2.75,17.89c1.29,2.8,2.6,4.27,3.69,5.06c1.08,0.78,2.11,1.82,2.11,1.82
			s0.19,0.16,0.46,0.52l-0.05,0c-6.26,5.07-8.12,6.72-13.12,10.25c0,0-5.7,4.26-11.93,7.62c-6.26,3.37-13.6,2.95-13.6,2.95
			s-1.99-0.22-1.02-1.66c0.96-1.43,2.2-4.94,2.67-6.72c0.49-1.79,1.44-6.31-2.19-7.75c-3.64-1.43-10.47,0.68-10.47,0.68
			s-15.69,4.18-22.1,11.2c-6.22,6.83-0.99,9.88-0.99,9.88s2.43,1.7,4.8,2.53c2.24,0.8,1.79,1.51,1.23,1.92c0,0-7.01,4.46-15.3,6.85
			c0,0-11.33,3.47-22.33,4.18c-10.79,0.69-15.45,0.98-15.57,0.98c-1.18-2.32-2.4-4.4-2.4-4.4s-1.28-1.97-1.9-4.75
			c-0.53-2.34-0.58-5.23,1.05-8.08c3.6-6.26,9.49-8.14,9.49-8.14s5.21-1.15,10.39,0.05c4.92,1.13,7.4-0.76,7.4-0.76
			s1.7-0.74,2.92-3.64c0.1-0.25,0.19-0.57,0.29-0.85c0.08-0.25,0.18-0.49,0.26-0.77c0.17-0.61,0.32-1.29,0.43-2.05
			c0.91-5.99-0.05-17.14-8.04-19.35c-8-2.19-12.24,1.96-12.24,1.96s-4.3,4.75-5.7,5.44c-1.4,0.7-3.55,1.95-3.55,1.95
			s-3,1.8-5.04,2.25c-1.27,0.28-5.54-5.33-6.5-10.11c-0.07-0.33-0.16-0.66-0.19-0.98c-0.4-4-1.16-7.34-1.13-14.41
			c0.01-1,0.03-2.08,0.07-3.25c0-0.01,0-0.04,0-0.06c1.42-0.08,2.86-0.16,4.3-0.22c12.39-0.45,18.53-1.92,25.12-3.4
			c6.58-1.49,15.85-6.87,17.23-7.9c1.2-0.89,3.57-1.98,4.53-5.28c0.1-0.35,0.17-0.75,0.24-1.15c0.02-0.13,0.06-0.23,0.08-0.37
			c0-0.01,0.01-0.03,0.01-0.04c0.59-4.49-4.73-7.48-4.73-7.48s-4.22-2.23-5.12-3.22c-0.45-0.5-0.46-0.98-0.37-1.34
			c0.09-0.34,0.29-0.57,0.29-0.57s2.39-5.15,10.04-8.16c7.65-3.03,12.79-3.84,16.02-4.19c3.24-0.34,4.32,0.82,4.76,1.37
			c0.44,0.54,0.44,1.68,0.08,2.84c-0.36,1.07-1.54,3.6-2.24,4.84c-0.68,1.24-1.81,4.22-1.09,5.63c0.72,1.41,2.92,2.06,5.76,1.54
			c2.85-0.52,10.36-2.64,16.96-5.38c6.59-2.74,17.59-8.13,17.59-8.13s0.04-0.01,0.08-0.04l0-0.03c0.01,0,0.01,0,0.02-0.01l0.29-2.45
			c0,0.01,0.01,0.04,0.01,0.05l-0.28,2.48C335.2,215.75,339.51,224.84,341.3,228.56z M359.21,276.27l-0.07,2.19
			c0.72,1.99,1.26,5.14,0.5,9.77c-1,6.16-2.46,9.73-3.44,11.56c-0.17,0.31-0.35,0.63-0.53,0.92c-0.08,0.1-0.11,0.16-0.16,0.23
			c-0.16,0.24-0.34,0.46-0.51,0.68c-0.18,0.23-0.52,0.64-0.94,1.11c-0.21,0.21-0.4,0.44-0.62,0.63c-0.08,0.07-0.17,0.15-0.24,0.22
			c-0.23,0.23-0.49,0.47-0.76,0.7c-0.08,0.07-0.11,0.12-0.18,0.18c-1.32,1.12-2.97,2.17-4.75,2.39c-3.88,0.46-8.08,0.41-11.99,4.15
			c-0.06,0.06-0.13,0.09-0.19,0.14c-0.12,0.13-0.26,0.28-0.39,0.41c-0.07,0.08-0.14,0.13-0.21,0.21c-0.02,0.03-0.04,0.06-0.07,0.08
			c-0.38,0.42-0.77,0.94-1.13,1.51c-3.16,4.74-2.44,10-2.44,10s0.41,3.99,4.69,2.9c4.26-1.09,8.63-4.37,11.92-6.98
			c3.28-2.61,1.27,0.88,1.27,0.88c-2.9,5.66-8.4,11.31-8.4,11.31s-1.92,1.67-6.13,7.62c-1.1,1.54-2.01,2.92-2.78,4.13
			c0,0-0.01,0-0.01,0s-0.02,0.02-0.03,0.03c-4.32,2.32-10.52,5.4-14.44,7c0.19-0.07,0.41-0.16,0.61-0.23
			c-0.21,0.08-0.42,0.18-0.61,0.25c-2.07,0.85-3.7,1.41-4.88,1.74c0.04-0.01,0.05-0.02,0.09-0.04c-1.26,0.36-2.01,0.45-2.24,0.33
			c-0.01-0.01-0.04-0.01-0.05-0.01c-0.04-0.04-0.02-0.09,0-0.15c0.01-0.02-0.01-0.03,0.01-0.05c0.45-0.65,1.6-1.59,1.6-1.59
			s1.39-1.39,1.39-2.79c0,0,0.11-0.51-0.53-0.86c-0.64-0.36-2.03-0.55-5.04,0.08c-1.47,0.3-2.9,0.72-4.24,1.17
			c-0.03,0.01-0.07,0.02-0.09,0.03c-1.8,0.61-3.42,1.26-4.64,1.8c0.03,0,0.03,0,0.04,0c0,0,0.12-0.05,0.35-0.14
			c-1.71,0.76-2.82,1.35-2.82,1.35s-3.03,1.4-5.14,3.05l0.07-0.07c-0.08,0.06-0.13,0.12-0.21,0.18c-0.25,0.21-0.5,0.41-0.71,0.63
			c-0.05,0.04-0.09,0.08-0.13,0.12c-0.27,0.28-0.49,0.55-0.66,0.83c-0.03,0.04-0.05,0.08-0.08,0.12c-0.16,0.28-0.24,0.55-0.25,0.82
			c0,0.02,0,0.04,0,0.05c0,0.29,0.08,0.56,0.3,0.82c0,0,0.4,0.65,2.2,1.23c0.21,0.07,0.3,0.14,0.35,0.23
			c0.02,0.03,0.01,0.06,0.01,0.08c0,0.06-0.03,0.11-0.07,0.17c-0.05,0.06-0.08,0.11-0.15,0.17c-0.03,0.03-0.08,0.05-0.11,0.08
			c-0.1,0.08-0.21,0.14-0.34,0.22l0.06-0.02c-1.03,0.58-2.95,1.17-2.95,1.17c-4.74,1.55-8.38,2.25-12.97,3.21
			c-4.76,0.98-8.89,1.88-11.67,2.49l0-0.01l0.03-0.01c-0.3-1.13-0.74-2.24-1.22-3.29c-0.07-0.13-0.12-0.26-0.19-0.39
			c-0.23-0.48-0.46-0.94-0.7-1.38c-0.05-0.08-0.09-0.18-0.13-0.26c-0.28-0.5-0.54-0.95-0.8-1.38c-0.12-0.2-0.22-0.36-0.32-0.53
			c-0.12-0.19-0.22-0.37-0.34-0.54c-0.31-0.49-0.58-0.91-0.75-1.18c-1.09-1.74-2.9-2.74-8.3-1.84c-5.4,0.9-11.74,3.59-11.74,3.59
			s-6.56,3.45-11.44,2.8c-1.23-0.16-2.2-0.59-2.99-1.17c-2.34-1.74-2.9-4.8-2.86-5.96c0.05-1.55,1.05-2.9,3.6-3.9
			c2.55-1,8.55-2.35,17.29-2.8s12-6.14,12-6.14c1-1.45,2.7-4.46-0.18-7.04c-0.42-0.37-0.92-0.73-1.54-1.08
			c-3.05-1.71-4.24-2.08-5.27-2.55c-0.38-0.18-0.75-0.38-1.17-0.65c-0.03-0.03-0.07-0.04-0.09-0.07c-0.08-0.05-0.16-0.11-0.23-0.16
			c-0.18-0.13-0.36-0.24-0.57-0.41c-0.59-0.45-1.19-0.93-1.77-1.43c-1.75-1.52-3.38-3.33-4.13-5.61c-0.08-0.29-0.23-0.68-0.36-1.01
			l-1.76-1.15l-1.16-0.77l-0.01,0v0l0,0l-0.01-0.01l0.01-0.01h-0.01l0.01-0.01v0v0v0l0.01,0.01c0,0,0,0,0-0.01l0.02-0.02l0,0
			l0.21-0.2l-0.21,0.2l0.04,0.03c-0.01,0-0.02,0-0.03,0l2.92,1.93c2.54-0.21,5.85-0.45,8.81-0.59c5.86-0.29,15.05-1.65,20.39-2.8
			c5.34-1.19,13.42-3.68,19.39-6.77c5.98-3.09,6.27-5.27,6.27-5.27s0.45-0.64,0.17-1.57c-0.16-0.56-0.59-1.22-1.54-1.9
			c-2.49-1.82-3.59-1.32-5.8-3.56c-0.27-0.27-0.44-0.56-0.54-0.86c-0.68-2.15,2.47-4.71,2.47-4.71s2.13-3,13.95-7.55
			c11.82-4.56,13.81-3.03,14.42-2.52c0.15,0.12,0.27,0.32,0.36,0.54c0.25,0.72,0.25,1.84,0.07,2.66c-0.24,1.11-1.72,5.05-2.5,7.13
			c-0.4,1.05-0.67,2.29-0.42,3.35c0.23,1.03,0.95,1.89,2.53,2.23c3.21,0.67,7.68-0.03,11.88-1.54c10.04-3.58,13.04-7.96,29.6-19.99
			c0.04-0.04,0.08-0.05,0.11-0.08l0.06-2.24c0.01,0,0.01-0.01,0.01-0.01v0C359.19,276.23,359.2,276.26,359.21,276.27z M188.63,336.9
			c2.65,2.99,5.43,4.27,5.43,4.27s1.63,0.72,1.61,1.17c-0.03,0.57-0.05,1.07-1.28,1.77c0,0-4.83,2.82-14.25,2.98
			c-9.41,0.16-13.56,0.08-16.33-2.41c-2.28-2.05,0.57-6.4,0.57-6.4s1.14-2.13,0-5.04c-1.15-2.92-7.69-2.96-7.69-2.96l-9.07-0.46
			c-10.74-0.28-24.91-1.49-31.22-2.27c0,0-0.04-0.01-0.11-0.02v0.01l-0.18-0.28c0,0-6.5-11.7-5.81-16.01c0,0,0.18-2.19,2.95-3.58
			c0.39-0.2,0.84-0.38,1.35-0.53c2.83-0.87,2.46,1.88,10.79,3.38c0,0,4.18,1.11,7-0.68c0.87-0.55,1.62-1.36,2.07-2.6
			c1.87-5.22-1.96-11.77-1.96-11.77s-5.03-9.21-11.25-9.56h0l0,0c-0.04,0-0.07,0.01-0.1,0c-3.15-0.13-2.36,2.04-7.26,3.2
			c0,0-6.64,0.65-8.74-3.34c-2.54-4.82-3.53-10.3-3.53-13.95c0-0.13,0-0.22,0-0.33c0.06-2.29,0.13-3.09,0.25-3.71
			c0.05-0.22,0.11-0.48,0.18-0.82c0.08-0.36,0.23-0.83,0.39-1.43c0.17-0.63,0.35-1.4,0.47-2.37l-0.01-0.04
			c2.82-0.31,7.33-0.8,12.56-1.36c8.77-0.94,14.66-1.89,20.11-1.07c5.45,0.82,7.21,5.07,7.21,5.07s0.09,0.27,0.03,0.64
			c-0.07,0.37-0.29,0.82-0.89,1.21c-1.21,0.79-2.61,1.9-3.29,3.09c0,0.01-0.01,0.02-0.01,0.03c0,0,0,0,0,0.01
			c-0.08,0.14-0.16,0.3-0.24,0.47c0,0,0,0,0,0c-0.58,1.33-0.96,3.62,0.79,6.58c1.99,3.34,7.43,5.52,12.07,4.97
			c4.63-0.54,11.57-2.32,15.68-3.4c3.36-0.88,6.42-2.34,7.95-4.5c0.51-0.72,0.86-1.52,0.99-2.4c0.51-3.5-5.33-7.96-5.33-7.96
			s-2.8-2.12-3.15-2.6c-0.09-0.12-0.11-0.22-0.09-0.31c0.08-0.22,0.42-0.34,0.42-0.34s3.29-0.8,4.71-1.43
			c1.4-0.66,5.28-2.24,11.63-4.23c6.35-1.99,19.45-4.32,19.45-4.32s7.23-1.15,16.25-1.89l0.03-0.04c0.01,0,0.02,0,0.03,0l1.12-1.28
			l0.34-0.38l-1.47,1.71c-0.03,0.85-0.05,1.73-0.09,2.64c-0.5,13.45,2.5,20.34,2.5,20.34c1.7,3.7,3.55,6.35,6.05,8.04
			c2.49,1.7,5.9,0.54,7,0c1.09-0.55,4.14-1.95,6.74-3.59c2.6-1.66,2.51-2.36,5.65-5.25c3.15-2.89,7.2-2.09,7.2-2.09
			s3.84,0.09,6.04,4.55c2.2,4.45,1.76,10.79,1.2,13.09c-0.55,2.29-1.55,3.8-3.69,3.4c-2.16-0.39-5.7-0.75-7-0.8s-4.97-0.17-8.3,0.7
			c-3.25,0.84-7.65,3.19-11.85,10c-3.25,5.27-1.66,10.45-0.91,12.49c0.59,1.6,2.2,3.83,3.62,6.57l2.63,0.87l-0.01,0.01l-2.61-0.87
			c-4.45,0.53-11.99,1.61-19.41,3.4c-9.09,2.22-17.77,3.98-23.94,7.96C190.59,330.85,185.97,333.92,188.63,336.9z M116.28,327.6
			l-0.02,0.49c0,0,0,0,0,0v0l0,0v-0.01l0,0L116.28,327.6z M102.41,260.85l-0.01-0.01l0.01-0.01
			C102.41,260.83,102.41,260.84,102.41,260.85z M211.49,187.27c-0.68-4.85-0.86-5.99-5.15-20.69c5.62-0.77,10.18-1.49,15.36-2.5
			c3.47-0.68,7.21-1.48,11.77-2.53c0,0,10.56-1.88,12.75-5.74c1.28-2.25,3.56-5.33-0.14-8.42c-0.01-0.01-0.01-0.01-0.02-0.02v0
			c0,0-0.42-0.56-2.74-1.08c-0.98-0.22-1.85-0.42-2.69-0.67c-1.13-0.34-2.21-0.79-3.33-1.59c-1.96-1.4-1.91-3.01-1.91-3.01
			s-0.17-1.54,2.99-3.32c0,0,1.66-1.21,4.95-2.61c1.11-0.46,2.38-0.95,3.85-1.41c5.87-1.85,12.65-1.03,12.65-1.03
			s2.84,0.31,2.38,2.23c-0.49,1.92-2.09,5.14-2.16,6.79c-0.04,0.99-0.01,2.08,0.72,3.09c0.23,0.33,0.56,0.64,0.97,0.94
			c0.42,0.31,0.92,0.61,1.57,0.88c2.03,0.83,4.59,0.99,6.24,0.98c0.98,0,1.64-0.06,1.64-0.06s4.79-0.24,12.66-2.78
			c4.92-1.59,9.86-3.3,12.85-4.36c1.76-0.62,2.85-1.01,3-1.07c0.03-0.01,0.04-0.01,0.08-0.03l0.01,0.03
			c6.89,6.75,8.14,14.98,8.14,14.98s0.93,3.24-0.98,3.49c-1.67,0.21-5.56,0.24-5.56,0.24s-1.47,0.15-3.88,0.64
			c-2.39,0.49-3.92,3.04-4.26,4.81c-0.34,1.77-1.39,6.62,2.71,14.25c4.07,7.62,9.23,7.27,9.23,7.27c4.47-0.39,5.84-1.18,8.46-2.95
			c2.53-1.72,3.69-5.55,3.83-6.28c0.16-0.74,0.5-1.47,1.08-1.47c0.61,0,0.41,0,1.78-0.2c1.39-0.2,2.42,0.79,3.55,3.09
			c0.74,1.49,4.66,7.96,5.8,11.8c1.13,3.82,2.12,7.65,2.21,11.09c0.04,1.36,0.23,2.92,0.45,4.29l1.09,1.58c0,0,0,0.01,0,0.01l0,0.02
			l-1.13-1.63c-5.75,2.87-18.79,9.21-27.3,12.19c0,0-6.5,2.64-9.16,2.71c0,0-0.59,0.02-0.11-0.62c0.46-0.64,0.96-1.12,1.75-2.56
			c0.8-1.45,2.24-4.71,2.24-8.07c0-3.36-3.88-6.65-9.29-6.07c-5.41,0.58-10.58,2.08-16.82,4.48c-6.23,2.4-11.59,7.49-12.31,11.7
			c-0.72,4.22,3.84,6.66,3.84,6.66s5.15,2.61,5.8,4.01c0.66,1.41,0.17,2.72,0.17,2.72s-0.44,1.41-2.72,2.71
			c-2.25,1.3-8.39,4.46-8.39,4.46s-7.65,4.22-19.29,5.24c0,0-10.61,0.9-16.7,1.21c-0.07,0.01-0.14,0.01-0.21,0.01
			c0.26-7.81-0.68-13.89-2.3-18.41c-0.54-1.51-1.15-2.84-1.83-4.01c-2.79-4.9-7.34-7.5-9.59-8.6c-2.24-1.1-7.45-1.6-10.99-0.3
			c-3.55,1.3-4.29,2.34-5.59,4.6c-1.31,2.25-2.9,2.11-2.9,2.11s-4.75,0.1-6.44-7.01c-0.04-0.13-0.08-0.23-0.11-0.37
			c-0.23-1.09-0.37-2.06-0.49-3c-0.02-0.2-0.08-0.45-0.1-0.64c-0.07-0.63-0.07-1.14-0.09-1.7c-0.02-0.43-0.07-0.91-0.07-1.31
			c0.04-5.42,2-7.34,2-7.34s1.11-1.65,4.75-2.15c3.65-0.5,6,0.4,8.8,1.09c2.79,0.7,4.9,0.4,8.39-1.29c2.01-0.98,3.34-2.34,3.99-4.25
			C211.67,191.11,211.79,189.39,211.49,187.27z M270.1,83.97c2.46-0.63,7.2-2.2,8.21-2.59c0.98-0.38,6.13-2.09,9.83-2.72
			c3.74-0.66,7.12-0.53,8.34,0.13c0.2,0.17,1.01,0.96,1.34,1.68c0.46,1.01,1.75,3.48,4,4.62c1.88,0.93,3.25,1.49,7.43,1.12
			c5.93-1.49,6.6-4.79,5.99-5.92c-0.78-1.48-3.1-2.99-3.1-2.99s-3.12-1.99-3.79-2.93c-0.07-0.1-0.07-0.17-0.11-0.25
			c1.67-0.22,3.55-0.47,5.77-1.06c1.07-0.29,1.9-0.58,2.53-0.87l0.94,0.29c1.85,1.47,12.42,9.94,16.02,12.32
			c0.74,0.49,1.73,0.34,2.29-0.35l0.07-0.08c0.45,0.36,0.93,0.75,1.08,0.92c0,0,2.25-0.01,3.37,1.13c1.47,1.2,5.57,4.81,6.63,6.83
			l0.53,1.59c-0.29,0.57-0.24,1.25,0.13,1.78c0.13,0.19,3.29,4.67,7.3,9.05c0.41,0.55,3.74,5.05,5.59,7
			c-0.97,0.39-2.35,0.9-4.2,1.39c-3.86,1.04-7.59,2.78-7.59,2.78s-3.09,1-1.92,3.52c0.11,0.23,0.24,0.4,0.36,0.61
			c0.07,0.17,0.16,0.36,0.29,0.54c0,0,0.06,0.06,0.08,0.08c1.05,1.65,2.19,2.49,2.19,2.49s0.19,0.18,0.45,0.48
			c0.14,0.16,0.3,0.34,0.48,0.55c0.07,0.09,0.14,0.17,0.21,0.26c0.26,0.33,0.53,0.71,0.75,1.11c0.36,0.6,0.63,1.24,0.66,1.81
			c0.08,1.82-0.69,2.65-2.65,3.73c-1.95,1.09-3.73,1.3-3.73,1.3s-4.63,0.83-6.94-1.34c-2.3-2.17-2.73-5.77-2.73-5.77
			s-0.18-3.04-3.98-4.34c-3.83-1.3-8.51,1.47-8.51,1.47s-3.7,1.95-7.63,4.51c-3.95,2.56-11.41,5.68-16.09,7.33l-0.53,2.42v0.01
			c0,0,0,0,0,0l0.01,0l-0.01,0l0,0h0h0v-0.01h0.01h0v0l0,0l0.25-1.18l0.26-1.24c0-0.01,0-0.01,0-0.01v0
			c-0.33-0.31-0.91-0.92-1.63-1.72c-1.78-1.97-4.49-5.13-6.96-8.09c-2.41-2.89-4.59-5.58-5.38-6.73c-1.96-2.8-2.25-3.44-2.6-4.38
			c-0.08-0.23-0.09-0.54-0.05-0.88c0.16-1.03,0.84-2.41,1.47-3.15c0.83-0.98,1.82-1.17,3.83-0.73c2.02,0.44,3.34,1.33,6.54,0.29
			c3.2-1.02,3.36-3.44,3.59-5.9c0.19-1.84-1.42-5.23-3.24-7.87c-0.61-0.88-1.23-1.68-1.82-2.31c-2.37-2.5-5.7-2.91-8.02-2.75
			c-2.3,0.15-3.63,1.82-4.97,2.56c-1.32,0.74-3.83,1.47-4.95,0.99c-0.57-0.25-1.28-0.5-2.09-1.1c-0.81-0.61-1.71-1.58-2.66-3.27
			c-1.26-2.22-2.34-4.25-3.03-5.59C268.64,84.37,269.33,84.17,270.1,83.97z M202.28,133.92c0.55-0.26,1.5-0.65,2.81-0.84l2.65-0.15
			c0.54,0.03,1.13,0.08,1.75,0.12l0.62,0.06c1.2,0.1,2.86,0.23,4.81-0.59c0.01,0,0.03-0.01,0.04-0.01c0.05-0.02,0.11-0.05,0.16-0.07
			c0.37-0.14,0.72-0.29,1.03-0.46c1.47-0.82,5.5-3.02,5.21-7.5c-0.27-4.48-3.84-9.79-6.76-11.62c-0.74-0.46-1.53-0.76-2.33-0.92
			c-2.42-0.5-4.98,0.21-6.56,1.37c-2.1,1.56-2.93,3.57-4.21,4.21c-1.26,0.62-3.06,2.04-4.96,1.65c-0.02-0.01-0.04,0-0.06,0
			c-1.92-0.46-2.02-4.76-2.84-9.61c-0.33-1.96-0.61-3.59-0.83-4.88c-0.09-0.55-0.17-1.03-0.25-1.45c2.25-0.34,6-1.04,10.81-2.45
			c8.03-2.35,10.79-4.24,11.08-4.44c0.37-0.26,0.54-0.68,0.61-1.11c0.83-0.53,1.59-1.07,2.19-1.63c0,0,2.17-1.01,0.08-3.05
			c-0.01,0-0.01,0-0.01,0l0,0c-2.11-2.03-3.11-2.64-3.11-2.64s-0.35-0.19-0.53-0.62c-0.05-0.12-0.07-0.27-0.08-0.43
			c0.18-0.34,0.43-0.71,0.82-1.15c1.2-1.34,2.95-2.27,5.19-2.76c1.16-0.25,4.03-0.55,6.81-0.43c2.16,0.1,3.42,0.28,4.28,0.59
			c-0.12,1.27-0.3,3.01-0.26,3.54c0.04,0.54,0.09,1.74,1.32,2.87c0.25,0.7,0.69,1.36,1.49,1.69c0.53,0.32,2.7,1.3,8.82,0.68
			c0.11-0.02,2.64-0.47,6.59-1.64c9.46-2.82,14.75-4.38,15.74-4.63c0.08-0.02,0.2-0.06,0.27-0.08c0.48,0.96,1.28,2.46,2.64,4.78
			c3.13,5.39,8.59,7.47,10.95,7.22c2.07-0.21,5.61-1.18,6.98-2.7c1.37-1.53,2.75-1.33,2.75-1.33c2.99-0.19,3.73,2.32,6.19,5.85
			c2.46,3.54,0.94,6.29,0.94,6.29c-1.63,2.16-3.45,1.72-5.12,1.38c-1.25-0.26-1.39-0.41-2.84-0.68c-4.52-0.6-6.04,2.74-6.04,2.74
			c-3.25,5.01,0.59,8.65,0.59,8.65s8.56,11.49,15.09,18.56c-4.92,1.7-11.32,3.84-11.32,3.84s-8.71,3.21-14.44,4
			c-5.72,0.78-7-0.05-7.77-0.83c-0.79-0.78,0.13-3.51,0.13-3.51s2.34-4.77,1.21-7.25c-1.13-2.48-8.5-3.12-8.62-3.12
			c-0.14,0-8.04-0.92-15.44,3.24c-6.57,3.69-7.44,5.7-7.44,5.7s-2.09,3.25,0.39,6.48c2.79,3.65,6.51,3.97,6.51,3.97
			s3.55,0.27,4.37,1.32c0.83,1.04,0.26,2.18,0.26,2.18s-1.16,3.2-7.73,4.55c0,0-11.02,3.24-31.59,6.16
			c-4.1-14.81-4.36-24.15-4.36-24.15C200.67,135.97,201.01,134.75,202.28,133.92z M134.23,178.94c0,0,1.64,0.21,1.4,0.8
			c-0.22,0.47-1.46,1.43-1.46,1.43s-0.47,0.28-2.26,2.32c-1.8,2.03-2.33,4-2.41,5.76c-0.01,0.22,0.01,0.5,0.07,0.81
			c0.38,2.18,2.54,6.29,8.31,7.51c6.6,1.38,14.15-1.18,14.15-1.18s4.95-1.09,9.66-5.81c2.14-2.15,2.42-4.47,2.05-6.42
			c-0.47-2.5-2.01-4.37-2.01-4.37s-0.77-1.06-2.25-1.53c0,0-0.35-0.1-0.38-0.32c-0.01-0.07,0.02-0.16,0.11-0.26
			c0.23-0.25,0.67-1.04,1.76-1.82c0.67-0.39,1.66-0.84,3.01-1.33c3.49-0.9,13.82-4.16,38.36-7.4l0.01-0.02
			c0,0.05,1.78,7.13,3.13,11.71c1.35,4.6,1.95,9.14,2.16,10.09c0.2,0.95,0.15,2.64-1.1,3.65s-4.3,1.86-4.94,1.95
			c-0.65,0.1-1.86-0.15-3.45-0.7c-1.61-0.55-3.2-0.65-3.2-0.65s-3.85-0.65-7.95,0.6c-4.1,1.24-7.2,5.44-7.45,10.69
			c-0.24,5.25-0.2,7.9,1.86,12.55c2.04,4.65,5.75,7.3,8.54,7.34c2.8,0.05,5.09-1.4,6.7-3.65c1.59-2.25,2.04-2.61,2.04-2.61
			c1.9-1.05,6.74-1.5,9.19-0.6c2.46,0.9,6.96,3.72,9.44,9.29c2.01,4.5,2.63,9.54,2.53,18.6l2.01,1.55l-0.01,0.02l-2.04-1.56
			c-5.69,0.47-12.28,1.25-12.28,1.25s-14.88,2.11-28.51,6.32c-11.57,3.56-13.77,5.52-13.77,5.52s-2.47,2.07-0.41,5.04
			c0,0,1.18,1.87,3.57,3.75c2.38,1.88,4.29,3.67,4.02,4.57c-0.28,0.92-1,1.33-1,1.33s-3.33,2.96-16.98,5.26c0,0-8.78,1.7-11.48-0.96
			c-2.7-2.65-1.51-4.44-1.51-4.44s0.18-0.6,2.15-1.83c0,0,3.3-2.07,2.25-5.99c-1.05-3.94-7.38-8.83-14.23-8.79
			c0,0-7.99,0.03-28.43,2.64c0,0-0.04,0-0.07,0.01c0.01-0.89-0.01-1.85-0.08-2.88c-0.32-5.76-0.73-14.64-1.51-19.81
			c-0.78-5.17-2.2-13.18-6.91-13.41c0,0-2.33-0.18-5.67,3.07c-3.07,2.97-5.84-2.46-5.99-5.77c-0.18-3.88,0.46-7.82,1.42-9.7
			c0.24-0.47,0.59-0.82,0.97-1.09c1.17-0.81,2.75-0.85,3.13-0.82c0.5,0.05,1.92,0.59,3.62,1.65c1.28,0.8,2.91,0.99,4.23,0.45
			c0.43-0.18,0.84-0.43,1.19-0.78c1.37-1.37,3.28-2.97,4.07-9.01c0.78-6.04,0.78-12.31,0.05-19.8l-0.01-0.03
			c1.33-0.24,3.08-0.54,5.07-0.85c2.21-0.34,4.71-0.67,7.33-0.93C122.11,178.6,130.65,178.49,134.23,178.94z M76.23,122.89
			c0.28-0.2,0.71-0.49,0.97-0.58c0.41-0.12,0.77-0.39,0.99-0.76c0.04-0.07,3.75-6.27,5.37-8.64c0.53-0.33,1.07-0.64,1.36-0.82
			c0.14,0.06,0.29,0.1,0.45,0.11c0.48,0.07,0.97-0.09,1.34-0.41c0.19-0.17,1.98-1.78,6.12-7.38c0.31-0.37,0.44-0.86,0.38-1.33
			c-0.04-0.32-0.17-0.62-0.36-0.86c0.09-0.44,0.27-1.04,0.41-1.34c0.03-0.03,0.06-0.06,0.08-0.09c0.06-0.07,5.94-6.99,10.65-10.96
			c0.01,0,0.6-0.42,1.51-0.53c0.16-0.02,0.32-0.07,0.47-0.12c0.22-0.09,5.44-2.3,11.8-7.87c0.26-0.23,0.46-0.6,0.55-0.93
			c0,0,0.22-0.79,1.35-2.3c0.92-1.22,2.99-2.59,4.98-3.41c-0.66,0.59-1.49,1.34-2.54,2.47c-1.07,1.14-1.42,1.84-1.34,2.19
			c0.08,0.36,0.61,0.37,1.3,0.13c0.36-0.12,0.79-0.29,1.33-0.52c0.02-0.01,0.04-0.01,0.06-0.02c0,0,0-0.01,0-0.01
			c1.35-0.58,3.32-1.52,6.1-2.95l0.11,0.17c0.5,0.75,1.5,0.99,2.28,0.54c0.02,0,1.23-0.66,3.09-1.4c-1.07,2.29-2.91,5.89-5,8.49
			c0,0-1.3,1.91-2.3,1.44c-1-0.46-2.18-0.5-3.16-0.3c-0.98,0.21-4.01,1.21-6.76,4.9c-2.74,3.69-3.06,6.46-1.59,7.29
			c1.47,0.83,3.62-0.26,4.92-1.41c0.96-0.86,1.71-1.36,2.2-1.55c0.16,0.33,0.41,0.59,0.72,0.76c-0.01,0.23-0.03,0.46-0.07,0.58
			c-0.09,0.33-0.53,4.73-5.64,13.57c-1.28,2.22-2.93,5.51-3.71,7.09l0,0.01c0,0-0.02-0.01-0.02-0.01
			c-8.28,1.54-14.45,3.45-16.56,4.25c-2.12,0.8-2.16,0.29-2.16,0.29c-0.3-0.36-0.09-1,0.24-1.65c0.21-0.4,0.45-0.79,0.68-1.12
			c0.32-0.45,0.58-0.77,0.58-0.77s2.27-3.1,3.17-5.95c0.89-2.84-3.09-2.45-3.09-2.45c-2.63,0.42-4.52,1.66-6.7,4.28
			c-1.68,2.04-2.71,4.82-3.09,6.29c-0.25,0.93-0.67,1.79-0.67,1.79s-0.32,0.57-1.56,1.12c-1.44,0.63-4.26,1.37-4.26,1.37
			s-1.87,0.16-3.23-0.52c-0.46-0.22-1.34-0.15-2.06-0.04C76.05,122.97,76.15,122.95,76.23,122.89z M73.69,124.92
			c0-0.01,0.01-0.01,0.01-0.02l0.03-0.03c-0.01,0.01-0.01,0.01-0.01,0.01h0.01l-0.59,0.87c0.21-0.32,0.4-0.61,0.58-0.87
			C73.71,124.9,73.7,124.91,73.69,124.92z M61.81,147.86c-0.02,0.08-0.03,0.1-0.04,0.17c-0.2,0.74-0.29,1.16-0.29,1.16
			c-0.02,0.34-0.01,0.57,0.03,0.74c0.06,0.21,0.16,0.33,0.36,0.32c0.14-0.01,0.44-0.47,0.53-0.24c0.05,0.15,0.04,0.55-0.13,1.46
			c-0.31,1.62-1.82,5.92-2.41,7.67c-0.59,1.75-1.25,2.95-1.71,2.87c-0.16-0.03-0.24-0.13-0.32-0.25c-0.13-0.24-0.15-0.55-0.15-0.55
			s-0.02-0.27-0.12-0.46c-0.08-0.17-0.23-0.26-0.47-0.04C58.5,156.36,60.07,152.08,61.81,147.86z M55.96,164.38l0.01-0.03
			c0,0,0.16-0.43,0.3-0.63c0.11-0.16,0.2-0.17,0.18,0.35c-0.05,1.15,0.68,1.25,0.68,1.25c0.46-0.07,0.96-0.6,1.47-1.45l0,0.01
			c0.01-0.02,0.03-0.05,0.04-0.08c0.21-0.35,0.41-0.75,0.63-1.21c0.05-0.12,0.11-0.25,0.17-0.38c0.16-0.36,0.33-0.74,0.5-1.16
			c0.07-0.18,0.14-0.37,0.22-0.56c0.16-0.39,0.31-0.82,0.47-1.25c0.08-0.21,0.16-0.42,0.23-0.64c0.13-0.38,0.26-0.77,0.39-1.16
			c0.09-0.26,0.17-0.5,0.26-0.77c0.07-0.21,0.13-0.41,0.19-0.62c0.15-0.47,0.3-0.94,0.43-1.4c0.09-0.34,0.19-0.67,0.28-1
			c0.09-0.34,0.18-0.67,0.27-1c0.08-0.3,0.16-0.61,0.23-0.9c0.13-0.51,0.24-1,0.34-1.45c0.06-0.24,0.09-0.44,0.14-0.66
			c0.07-0.28,0.12-0.53,0.16-0.77c0.01-0.08,0.04-0.2,0.06-0.27l0,0c0.13-0.7,0.21-1.19,0.21-1.3c0-0.38-0.2-0.67-0.53-0.48
			c-0.34,0.2-0.43,0.05-0.43,0.05c-0.01-0.08,0.01-0.21,0.04-0.34c0.01-0.02,0.01-0.04,0.01-0.07c0.22-1.11,1.2-3.51,1.2-3.51
			c0.52-1.32,1.06-2.6,1.62-3.84c0.05-0.12,0.11-0.23,0.16-0.34c0.27-0.59,0.54-1.17,0.82-1.74c0.01-0.04,0.03-0.07,0.05-0.1
			c2.15-4.44,4.39-8.13,5.97-10.58c0.29-0.04,0.3-0.03,0.83-0.19c0,0,1.4-0.23,3.86,0.42c3.17,0.84,7.17-1.72,7.17-1.72
			s0.06-0.04,0.15-0.1c0.02-0.01,0.03-0.02,0.05-0.04c0.09-0.06,0.22-0.14,0.37-0.25c0.04-0.03,0.08-0.06,0.11-0.08
			c0.15-0.11,0.3-0.23,0.49-0.38c0.06-0.05,0.13-0.1,0.19-0.16c0.17-0.14,0.34-0.29,0.52-0.46c0.05-0.04,0.09-0.08,0.14-0.12
			c-0.01,0.01-0.02,0.01-0.03,0.01c0.86-0.81,1.8-1.89,2.42-3.22l1.25-3.48c0,0,1.01-3.37,3.84-4.45c0,0,1.1-0.59,2.88-0.62
			c1.11-0.01,1.36,0.47,1.4,0.83c0.02,0.22-0.04,0.39-0.04,0.39s-0.2,0.81-2.04,3.16c-1.84,2.35-2.33,4.15-2.33,4.15
			s-0.62,1.41-0.19,2.46c0.15,0.35,0.41,0.66,0.85,0.87c0,0,0.83,0.49,3.26-0.32c2.43-0.81,10.48-2.92,15.39-3.68l0.04-0.01
			l-0.01,0.02c-0.92,2.63-2.1,6.75-1.63,9.05c0.7,3.51,4.01,3.51,4.01,3.51s0.74,0.03,1.84-0.21c0.07,0.03,0.11,0.11,0.18,0.13
			c0.6,0.2,1.76,0.23,3.78-0.8c0.16-0.08,0.29-0.1,0.43-0.15c1.19,1.11,1.52,4.36,1.52,5.04c0,0.92-0.02,5.99-3.54,8.47
			c0,0-1.42,1.09-3.41,1.09c-2.01,0-3.31-0.59-3.31-0.59s-3.41-0.94-5.51,0.29c-2.09,1.25-4.6,3.81-6.58,7.53
			c-1.97,3.72-3.63,10.36-3.54,15.25c0.07,3.85,0.62,7.5,1.01,9.99l2.29,1.5c-0.01,0-0.01,0-0.02,0v0h0v0l-2.33-1.5
			c0,0-7.94,2.09-16.91,2.04c-6.31-0.03-6.13-3.34-5.33-5.51c0.11-0.3,0.23-0.59,0.36-0.84c0.03-0.07,0.07-0.13,0.1-0.2
			c0.11-0.22,0.22-0.42,0.3-0.55c0.1-0.17,0.17-0.28,0.17-0.28s2.21-3.88,2.61-6.12c0,0,0.78-6.05-4.92-5.66
			c-5.71,0.38-6.83,5.36-6.83,5.36s-0.38,2.78-0.3,4.83c0.07,2.06-0.01,6.41-2.58,8.88c-2.55,2.47-5.3,1.72-5.3,1.72
			s-4.62-2.02-5.53-2.49c-0.72-0.38-1.38-0.41-2.02-0.31C53.33,173.98,54.54,169.14,55.96,164.38z M50.65,235.08l-0.92-1.3
			c-0.7-6.39-1.06-12.89-1.06-19.34c0-10.04,0.86-20.09,2.53-29.86l0.78-1.75c0.08-0.16,0.11-0.34,0.13-0.51
			c0.74,0.15,1.41,0.48,1.41,0.48s3.94,2.12,5.69,2.49c1.76,0.37,3.04-0.23,4.18-1.01c0.24-0.17,0.49-0.41,0.74-0.62
			c0.21-0.18,0.41-0.32,0.62-0.53c0.16-0.16,0.32-0.35,0.47-0.52c0.28-0.29,0.56-0.58,0.83-0.91c-0.03,0.03-0.05,0.05-0.08,0.07
			c0.74-0.92,1.37-1.93,1.86-2.97c-0.03,0.09-0.06,0.18-0.11,0.31c0.21-0.42,0.39-0.83,0.54-1.22c0.09-0.26,0.18-0.59,0.25-0.95
			c0.03-0.12,0.05-0.25,0.07-0.38c0.04-0.19,0.08-0.38,0.11-0.58c-0.01,0.04-0.02,0.07-0.03,0.1c0.17-1.04,0.29-2.23,0.38-3.32
			c0,0.02,0,0.04,0,0.07c0.14-1.74,0.18-3.17,0.18-3.23l0.01,0.04v-0.02l0,0.01c0,0,0-1.46-0.04-1.8c-0.01-0.03-0.01-0.09-0.02-0.14
			c-0.06-0.49-0.17-1.84,0.72-2.57c0.96-0.82,1.59-1.2,3.97-1.26c2.36-0.06,3.08,1.32,3.08,1.32s0.8,1.13,0.8,1.86
			c0,0.72-0.23,1.17-0.23,1.17s-1.28,2.17-1.74,3.24c-0.45,1.06-2.21,4.6-1.7,7.55c0,0.01,0,0.01,0,0.01v0.01
			c0.51,2.95,5.13,4.34,5.13,4.34s3.68,0.87,8.93,0.09l10.82-1.74l1.88-2.16l0.01,0.03l-1.86,2.13c0.27,3.94,0.58,11.66,0.53,14.25
			c-0.06,3.16-0.53,9.85-3.86,11.42c0,0-1.13,0.59-3.01-0.83c-1.89-1.42-3.92-1.48-4.75-1.51c-0.82-0.03-4.46,0.56-5.87,4.55
			c-1.42,3.97-1.3,9.33-1,12.48c0.3,3.16,3.04,8.53,6.49,8.53c0,0,1.68,0.12,3.66-1.91c1.97-2.04,3.13-2.21,4.01-2.19
			c0.89,0.03,2.6,0.95,3.72,9.89c1.07,8.47,1.52,15.41,1.43,23.13l2.04,1.33c0,0,0,0.01,0,0.01c-0.01,0-0.02,0-0.03,0l-2.06-1.34
			c-1.13,0.14-2.48,0.26-3.87,0.38c-3.51,0.24-8.59-0.21-14.91-2.07c-6.1-1.82-9.96-5.06-10.74-7.16c-0.02-0.08-0.08-0.18-0.09-0.26
			c-0.09-0.34-0.13-0.69-0.14-1.06c-0.01-0.11,0-0.19-0.01-0.28c0.01-1.09,0.26-2.09,0.26-2.09s1.19-4.57,0.44-8.33
			c-0.08-0.42-0.18-0.83-0.28-1.22c-0.03-0.14-0.05-0.27-0.06-0.37c-0.03-0.09-0.06-0.2-0.08-0.29c-0.03-0.08-0.08-0.14-0.11-0.22
			c-0.83-2.78-2.2-5.04-5.13-6.81c-3.63-2.19-5.7-1.81-5.7-1.81s-3.26-0.5-3.14,5.02c0.13,5.51,0.82,7.82,0.82,7.82
			s0.63,1.95-0.38,2.2c-1,0.25-2.57-1.25-2.57-1.25s-0.71-0.64-1.68-1.59c-0.12-0.13-0.24-0.25-0.37-0.39
			c-0.66-0.66-1.38-1.41-2.08-2.18l0.32-0.79C51.05,236.18,50.99,235.56,50.65,235.08z M56.96,267.68c0.01-0.02,0-0.05,0.01-0.05
			c0.28-0.05,2.01,3.07,3,6.04c1.15,3.43,1.92,6.29,1.92,6.29s0.63,1.94,0.58,2.63C60.41,277.71,58.57,272.73,56.96,267.68z
			 M74.03,305.25l-0.29-1.04c-0.11-0.38-0.33-0.69-0.64-0.93l-0.42-0.32c-3.24-5.51-6.12-11.18-8.72-16.96
			c0.01-0.03,0.01-0.1,0.02-0.14c0.03-0.1,0.05-0.22,0.06-0.39c0-0.11-0.01-0.25-0.02-0.39c-0.01-0.21-0.04-0.44-0.08-0.72
			c-0.01-0.08-0.01-0.13-0.03-0.22c-0.01-0.01-0.01-0.01-0.02-0.01c-0.28-1.67-1.04-4.44-2.7-8.93c-1.81-4.91-2.97-7.53-3.71-8.96
			c0-0.01,0-0.01,0.01-0.02c-0.07-0.14-0.13-0.25-0.2-0.37c0,0,0,0.01,0,0.02c-0.62-1.14-0.88-1.32-0.96-1.42
			c-0.09-0.11-0.32-0.33-0.46-0.25c-2.27-7.66-3.97-15.5-5.17-23.48c0.28,0.32,0.58,0.67,0.92,1.05l0.01,0.01
			c0.61,0.68,1.32,1.45,2.17,2.32l0.01,0.01l0,0c0,0,0,0,0,0c3.76,3.89,4.95,1.44,4.95,1.44s0.06-0.17,0.13-0.5
			c0.01-0.03,0.01-0.08,0.02-0.11c0.03-0.14,0.05-0.3,0.08-0.49c0.01-0.07,0.01-0.14,0.03-0.22c0.02-0.19,0.04-0.38,0.06-0.62
			c0-0.04,0.01-0.07,0.01-0.1c0,0.01-0.01,0.01-0.01,0.02c0.02-0.46,0.02-1.01-0.01-1.64c0,0.01,0,0.03,0,0.05c0-0.02,0-0.04,0-0.06
			c-0.02-0.32-0.07-0.66-0.1-1.01c-0.02-0.19-0.04-0.37-0.07-0.57c-0.06-0.37-0.14-0.78-0.23-1.19c-0.04-0.16-0.05-0.29-0.09-0.45
			c0-0.02-0.01-0.03-0.01-0.05c-0.65-2.74-0.83-4.78-0.38-5.92c0.12-0.32,0.3-0.53,0.5-0.71c0.07-0.05,0.14-0.1,0.22-0.14
			c0.17-0.09,0.37-0.14,0.59-0.16c0.08-0.01,0.14-0.03,0.22-0.03c2,0.07,7.83,1.25,9.65,6.08c0,0,0.75,2.25,0.07,5.13
			c-0.69,2.9-0.56,5.45-0.07,7.96c0.5,2.51,2.63,4.88,5.08,6.84c2.45,1.95,9.53,5.33,16.42,5.76c6.89,0.44,9.02,0.08,9.02,0.08
			l2.57-2.64c0,0.02,0,0.04,0,0.05l-2.57,2.61c-0.15,0.68-0.31,1.44-0.5,2.17c-0.59,2.37-0.65,4.74-0.08,8.91
			c0.55,4.2,2.81,12.91,6.08,15.17c4.34,3.02,7.18,2.96,10.12,2.74c2.92-0.23,4.94-2.47,4.94-2.47s1.15-1.18,2.37-0.82
			c1.24,0.36,4.67,2.29,7.14,7.23c2.47,4.94,3.02,10.38-1.09,11.35c-4.12,0.95-11.21-2.93-11.21-2.93s-4.02-2.24-7.31,0.22
			c-3.3,2.48-3.39,6.26-1.74,10.93c0.9,2.56,2.71,6.72,5.24,11.06l2.45,1.03c-0.01-0.01-0.01-0.01-0.02-0.01l-2.46-1.02
			c-3.95-0.77-11.25-2.32-14.14-3.76c-1.13-0.57-2.03-0.85-2.67-1.21c-0.31-0.18-0.57-0.38-0.75-0.62c-0.3-0.43-0.4-1.01-0.28-2
			c0.36-2.66-2.61-6.37-2.61-6.37s-4.12-4.46-7.83-7.24c-3.71-2.79-5.29-1.96-5.29-1.96s-1.67,0.89-0.17,4.5
			c1.51,3.6,2.99,4.86,2.99,4.86s0.72,0.77,0.31,0.97c-0.41,0.21-1.68-0.76-2.74-1.66c-0.49-0.4-2.45-2.22-4.43-4.07
			C75.46,307.41,74.72,306.36,74.03,305.25z M163.51,378.91c4.59,0.61,10.45,1.28,12.45,1.47l0.04-0.02
			c-0.02,0.31-0.14,0.64-0.33,1.07c-0.34,0.79,0.39,1.38,1.08,1.74C172.26,381.93,167.86,380.49,163.51,378.91z M178.09,379.42
			l-0.03-0.02l0.53,0.03c-0.42-0.38-0.96-0.74-1.56-1.09c-0.07-0.04-0.1-0.08-0.17-0.11c0.05,0.03,0.09,0.07,0.14,0.09
			c-0.19-0.11-0.36-0.22-0.57-0.33c-2.42-1.29-12.94-8.24-16.19-10.44c-2.17-1.47-5.42-3.59-8.1-4.61c-0.2-0.08-0.38-0.14-0.54-0.2
			c-1.1-0.37-2.08-0.53-2.79-0.32c-1.92,0.59-1.65,1.37-2.79,1.92c-0.86,0.4-1.76,0.3-3.32-0.39c-0.03-0.01-0.07-0.03-0.09-0.04
			c-0.53-0.23-1.11-0.53-1.8-0.9c-0.21-0.11-0.41-0.22-0.61-0.33c-0.33-0.17-0.66-0.36-0.98-0.53c-1.72-0.94-3.49-2.09-6.33-4.58
			c-0.25-0.22-0.49-0.43-0.76-0.68c-0.56-0.51-1.15-1.05-1.79-1.66c-4.32-4.11,5.53-0.4,5.53-0.4s2.15,0.91,1.19-1.34
			c-0.11-0.26-0.29-0.57-0.5-0.92c-0.11-0.19-0.26-0.41-0.39-0.61c-0.12-0.18-0.23-0.36-0.36-0.54c-0.19-0.27-0.4-0.56-0.62-0.85
			c-0.12-0.16-0.23-0.33-0.36-0.49c-0.24-0.32-0.5-0.65-0.76-0.99c-0.14-0.18-0.29-0.36-0.43-0.54c-0.27-0.34-0.54-0.67-0.83-1.02
			c-0.2-0.23-0.39-0.47-0.59-0.7c-0.25-0.3-0.51-0.61-0.77-0.91c-0.32-0.37-0.64-0.73-0.97-1.11c-0.17-0.19-0.33-0.37-0.49-0.55
			c-0.39-0.43-0.79-0.87-1.18-1.3c0.02,0.02,0.03,0.03,0.06,0.07c-0.72-0.79-1.45-1.57-2.18-2.32c-1.39-1.43-2.51-2.68-3.57-3.91
			c0.03,0.03,0.06,0.07,0.09,0.09c-1.81-2.1-3.32-4.12-4.95-6.49l-1.92-2.24c0.01,0.03,0.03,0.05,0.04,0.07l-0.08-0.08l-0.66,1.87
			c1.71,2.6,3.66,5.13,5.82,7.3c0,0,8.55,9.46,13.31,15.46c0,0,0.28,0.54-0.54,0.05c-0.83-0.51-4.4-2.15-6.32-1.96
			c-1.92,0.19-1.56,1.37-1.56,1.37s0.83,4.35,13.91,11.67c0,0,4.71,2.65,7.69,2.65c0,0,0.96,0.13,2.15-1.2
			c1.2-1.32,1.57-1.18,2.38-0.91c0.83,0.26,1.92,0.86,6.04,3.84c4.12,2.97,12.13,7.55,15,9.47c0.93,0.62,1.53,1.08,1.91,1.45
			c-5.88-0.47-12.33-1.24-15.73-1.72c-1.52-0.59-3.02-1.22-4.52-1.86c-0.72-0.44-1.56-0.95-2.39-1.45
			c-1.79-1.09-7.19-3.15-7.19-3.15s-0.56-0.22-1.32-0.5c-6.44-3.27-12.66-6.94-18.65-11c1.04,0.35,2.14,0.53,2.95,0.04
			c-0.2-1.97-2.44-3.55-3.72-4.53c-0.47-0.36-0.8-0.98-1.24-1.37c-1.65-1.45-3.57-2.86-5.36-4.12c-1.47-1.03-3.5-1.65-4.81-2.87
			c-0.04-0.3,0.42-1.03,0.14-1.79c-1.16-3.11-5.51-6.71-8.23-8.37c-1.26-0.79-3.37-1.13-4.53-1.92c-0.85-0.06-1.3-0.08-1.51,0.53
			c-0.34,0.76,0.72,1.81,1.09,2.34c0.95,1.32,2.02,2.86,3.3,3.83c0.96,0.72,2.04,1.36,2.87,2.2H107c-0.53-1.47-2.11-2.28-3.29-3.15
			c-1.08-0.8-1.56-2.19-2.47-3.15c0.08-0.43,0.12-0.4,0.28-0.69c3.8,0.04,6.25,3.51,7.96,5.77c0.76,1,1.98,1.59,2.06,3.3
			c-0.41,0-0.75,0-0.96-0.14h-0.41c0.66,1.81,2.86,1.66,4.4,2.62c3.08,1.9,5.56,4.89,8.23,7.26c0.91,0.82,2.49,1.62,2.74,3.03
			c-1.86-0.09-3.18-1.13-4.37-1.92c-0.14-0.09-0.33-0.22-0.47-0.33c-1.76-1.28-3.47-2.63-5.18-3.99c-0.53-0.5-1-0.99-1.34-1.46
			c-0.28-0.36-0.37-0.91-0.69-1.23c-0.38-0.38-0.91-0.51-1.23-0.96h-0.55c-0.02,0.25,0.06,0.47,0.13,0.7
			c-12.16-10.15-23.03-22.04-32.27-35.5c0.18,0.15,0.34,0.29,0.54,0.45c4.04,3.16,5.06,3,5.32,2.72c0.1-0.09,0.11-0.2,0.11-0.2
			s0.21-1.38-1.03-2.92c-0.34-0.41-0.74-0.98-1.13-1.59c-0.16-0.25-0.33-0.51-0.48-0.78c-0.47-0.82-0.88-1.65-1.08-2.35
			c-0.01-0.05-0.01-0.08-0.03-0.13c-0.05-0.2-0.08-0.38-0.09-0.54c-0.01-0.18,0.01-0.33,0.06-0.46c0.01-0.02,0-0.07,0.01-0.09
			c0.5-1.16,1.07-1.06,1.07-1.06s0.46-0.19,2.07,1.03c1.6,1.21,5.2,3.74,6.98,5.91c1.75,2.14,1.67,4.03,1.66,4.08
			c0,0.01-0.02,0.12-0.02,0.34c-0.01,0.64,0.13,2.15,1.59,3.74c1.93,2.09,6.01,5.95,20.32,8.15c0.08,0.02,0.14,0.02,0.21,0.03
			l0.66-1.89l0.01,0.02l0.01-0.01l0.03,0.03c0,0-0.01-0.01-0.01-0.01l1.93,2.26c0.02,0,0.04,0,0.06,0.01
			c12.46,1.8,19.23,1.95,19.23,1.95s16.33,0.57,20.75,0.57c3.75,0,3.71,1.66,3.62,2.16c-0.01,0.08-0.03,0.12-0.03,0.12
			s-0.25,1.25-0.78,2.24c-0.34,0.62-0.96,2.33-1.06,4c-0.07,1.01,0.07,2,0.56,2.76c0,0,2.03,4.95,15.2,5.3
			c0,0,11.53,0.93,19.57-2.38c2.53-1.04,3.54-2.21,3.74-3.32c0.48-2.43-2.96-4.61-2.96-4.61s-2.75-1.67-3.92-2.57
			c-0.53-0.41-0.69-0.82-0.69-1.2c0.01-0.38,0.16-0.72,0.26-1c0.21-0.56,1.03-1.24,1.96-1.71c0.92-0.46,4.3-2.26,18.61-5.97
			c14.31-3.7,22.85-4.1,22.85-4.1s0.08-0.01,0.13-0.02c1.37,3.33,2.43,5.17,4.52,7.45c2.24,2.44,5.8,4.34,9.99,5.95
			c4.2,1.6,2.3,4.45,2.3,4.45c-2.4,5.2-9.54,5.4-11.64,5.65c-2.09,0.24-6.49,0.65-10.6,1.55c-4.1,0.9-7.95,1.45-10.25,4.1
			c-2.29,2.65-1.39,5.4-0.04,8.3c1.34,2.9,4.94,4.45,9.89,4.26c4.94-0.21,8.15-1.65,11.14-2.95c2.99-1.3,8.2-2.8,9.75-3.25
			c1.55-0.45,3.65-1.35,5.2,0.9c1.67,2.43,3.45,5.88,4.26,8.5l1.9-0.42c0,0.01,0,0.01,0,0.02c-0.34,0.08-0.64,0.14-0.88,0.2
			c-0.57,0.12-0.87,0.21-0.87,0.21s-4.21,1.01-11.2,3.71c-6.99,2.71-20.72,4.96-20.72,4.96s-4.46,0.53-7.34,1.24
			c0.33-0.11,0.61-0.17,0.61-0.17s3.32-0.67,6.65-1.11c0,0-8.82,1.01-9.63,2.17c-0.28,0.46-0.24,0.82-0.09,1.1
			c0.22,0.46,0.78,0.69,0.78,0.69s1.25,0.78,5.79,0.98c0,0,1.57,0,1.64,0.13c0,0,0,0.01,0,0.01c0.02,0.03,0.03,0.07,0.03,0.09
			c0,0.01-0.01,0.03-0.01,0.04c-0.03,0.05-0.09,0.11-0.24,0.18c-0.13,0.06-0.31,0.12-0.59,0.22c-0.99,0.31-2.96,1.09-9.63,1.93
			c-4.41,0.56-5.84,0.29-6.32,0.03c0,0,0,0,0,0c-0.27-0.14-0.25-0.28-0.25-0.28s0-0.07,0.02-0.18c0.03-0.12,0.1-0.31,0.25-0.55
			c0.08-0.11,0.12-0.25,0.12-0.41c0.01-0.46-0.33-1.03-1.13-1.46c0.01-0.01-0.26-0.17-0.94-0.37c0,0,0.06,0.02,0.12,0.07
			c-0.88-0.26-2.57-0.61-5.53-0.58c-4.88,0.03-14.61,0.06-23.7-0.48C178.49,379.44,178.28,379.43,178.09,379.42z M199.58,387.86
			c-3.02-0.41-6.02-0.89-9-1.45c1.8-0.09,3.04-0.17,4.57,0.14c2.19,0.46,4.44,1,4.66,1.2C199.89,387.81,199.76,387.85,199.58,387.86
			z M235.18,389.12c2.37-0.32,5.23-0.5,6.82-0.67c0.67-0.08,1.12-0.08,1.43-0.08C240.69,388.69,237.94,388.93,235.18,389.12z
			 M247.64,387.86c-0.19-0.12-0.67-0.23-1.78-0.28c-0.99-0.04-2.01-0.04-3.03,0c-1.44,0.01-3.33,0.08-5.05,0.32
			c-1.2,0.17-2.39,0.37-3.44,0.55c-0.34,0.05-0.67,0.08-1,0.13c-2.24,0.32-3.25,0.61-3.7,0.82c-1.95,0.07-3.89,0.14-5.85,0.14
			c-7,0-13.9-0.46-20.73-1.25c0.21-0.21-0.28-0.49-0.61-0.65c-0.17-0.08-0.3-0.14-0.3-0.14s-0.3-0.14-0.92-0.36
			c0,0-0.01,0-0.01,0.01c-0.07-0.02-0.12-0.05-0.19-0.07c0.03,0.01,0.08,0.01,0.11,0.02c-0.35-0.11-0.82-0.24-1.34-0.38
			c-0.01,0-0.03-0.01-0.05-0.01c-0.4-0.1-0.84-0.22-1.35-0.32c-0.01-0.01-0.02-0.01-0.03-0.01c-1.04-0.23-2.29-0.46-3.79-0.64
			c0.05,0.01,0.1,0.02,0.15,0.03c-0.79-0.09-1.63-0.19-2.55-0.26c0,0-2.79-0.2-5.21,0.05c-0.1,0.01-0.21,0-0.31,0.01
			c0.01,0,0.04-0.01,0.05-0.01c-0.03,0-0.07,0-0.1,0c-1.8-0.38-3.59-0.79-5.37-1.22c-0.99-0.4-2.45-1.15-1.86-1.93
			c0.43-0.57,0.47-1.16,0.22-1.74c3.83,0.23,8.86,0.51,8.86,0.51s10.32,0.38,15.97-0.07c2.54-0.22,1.75,1.11,1.75,1.11
			s-0.74,1.23,0.72,1.83c0,0,2.67,1.52,11.59,0.54c8.92-0.99,10.89-2.99,10.89-2.99s1.03-0.95-1.22-1.38
			c-0.13-0.03-0.24-0.05-0.36-0.07c-0.05-0.02-0.12-0.05-0.14-0.05c-0.02,0-0.04,0-0.07-0.01c-0.03-0.01-0.05-0.01-0.08-0.01
			c-0.02,0-0.03-0.01-0.04-0.01c-0.02,0-0.05,0-0.08-0.01c-0.01,0-0.03,0-0.05-0.01c-0.01,0-0.04-0.01-0.06-0.01
			c-0.01,0-0.04-0.01-0.07-0.02c-0.01,0-0.04,0-0.06,0c-0.03-0.01-0.05-0.01-0.06-0.02c-0.01,0-0.05,0-0.05-0.01
			c-0.02,0-0.04,0-0.07,0c-0.01-0.01-0.03-0.01-0.04-0.01c-0.04,0-0.05-0.01-0.08-0.01c-0.01,0-0.02,0-0.03,0
			c-0.04,0-0.08,0-0.1-0.01c0,0-0.01,0-0.01-0.01c-0.02,0-0.05,0-0.08,0c-0.01-0.01-0.02-0.01-0.04-0.01c-0.02,0-0.04,0-0.07,0
			c-0.02,0-0.03,0-0.03,0c-0.03-0.01-0.04-0.01-0.07-0.01c-0.01,0-0.02,0-0.03,0c-0.03,0-0.05-0.01-0.07-0.01s-0.03-0.01-0.04-0.01
			c-0.03,0-0.05,0-0.07,0s-0.02,0-0.03,0c-0.13-0.01-0.28-0.01-0.44-0.03c-0.01,0-0.01,0-0.01,0c-0.03,0-0.05-0.01-0.08-0.01
			c-0.01,0-0.03,0-0.04,0c-0.02,0-0.04,0-0.08,0c-0.01-0.01-0.03-0.01-0.05-0.01c-0.02,0-0.05-0.01-0.07-0.01
			c-0.02,0-0.04,0-0.06-0.01c-0.02,0-0.04,0-0.07,0c-0.03,0-0.07-0.01-0.09-0.01c-0.02,0-0.04,0-0.07,0c-0.03,0-0.06-0.01-0.1-0.01
			c-0.01,0-0.04-0.01-0.05-0.01c-0.03,0-0.07,0-0.08,0c-0.02,0-0.04,0-0.07,0c-0.03-0.01-0.07-0.01-0.09-0.01c-0.02,0-0.04,0-0.07,0
			c-0.03-0.01-0.07-0.01-0.09-0.01c-0.02,0-0.06,0-0.08-0.01c-0.03,0-0.07-0.01-0.09-0.01c-0.03-0.01-0.05-0.01-0.08-0.01
			c-0.04,0-0.08-0.01-0.12-0.01c-0.02,0-0.05,0-0.07,0c-0.07-0.01-0.13-0.02-0.2-0.02c-0.49-0.07-0.94-0.11-1.31-0.2l-0.55-0.07
			c-0.84-0.24-0.99-0.53,0-0.8c1.53-0.39,4.07-0.61,4.07-0.61s7.8-1.09,14.1-2.71c0,0,6.73-1.59,13.39-3.94
			c2.63-0.92,4.84-1.59,6.55-2.07l1.51-2.22c0,0,0,0.01,0,0.01l-1.49,2.2c0.33,2.27-0.37,3.03-0.88,3.87
			c-0.54,0.9-2.04,2.05-1.29,4.11c0.75,2.04,5.85,1.4,8.8,0.5c2.95-0.9,5.44-1.7,7.4-2.41c1.95-0.68,2.49,0.3,2.49,0.3
			s0.85,0.61-1.99,2.11c-0.63,0.33-1.38,0.61-2.18,0.87c-0.11,0.03-0.2,0.07-0.32,0.1c-0.63,0.2-1.29,0.36-1.97,0.51
			c-0.17,0.04-0.36,0.08-0.53,0.11c-0.55,0.12-1.11,0.23-1.66,0.33c-0.22,0.04-0.45,0.08-0.68,0.11c-0.45,0.08-0.88,0.14-1.29,0.2
			c-0.24,0.04-0.49,0.07-0.71,0.1c-0.45,0.06-0.91,0.12-1.27,0.16c-0.3,0.04-0.56,0.07-0.79,0.08c-0.13,0.01-0.25,0.02-0.38,0.03
			c-0.08,0.01-0.16,0.01-0.23,0.02c-0.15,0.01-0.29,0.01-0.41,0.03c-0.09,0.01-0.19,0.02-0.28,0.03c-0.04,0.01-0.09,0.01-0.13,0.02
			c-0.12,0.01-0.25,0.04-0.38,0.07c-0.03,0-0.05,0.01-0.07,0.01c-0.55,0.12-1.33,0.36-2.82,0.87c-3.75,1.3-0.24,2.45-0.24,2.45
			c1.89,0.49,3.64,0.76,5.25,0.92C258.45,386.09,253.08,387.1,247.64,387.86z M319.22,360.75c-0.07,0.08-0.15,0.15-0.22,0.22
			c-15.71,10.28-33.11,18.1-51.61,22.93c-1.66-0.13-2.82-0.36-3.42-0.44c-1.49-0.2-2.7-0.5-3.05-1.25
			c-0.05-0.09-0.05-0.17-0.04-0.24c0.16-0.49,1.69-0.45,1.69-0.45h0.01c0,0,0.32-0.04,0.83-0.11c1.51-0.21,4.91-0.73,8.46-1.71
			c0.65-0.18,1.3-0.37,1.95-0.58c5.4-1.75,6.7-3.4,6.49-4.65c-0.03-0.19-0.13-0.34-0.27-0.46c-0.04-0.05-0.1-0.08-0.16-0.11
			c-0.11-0.08-0.25-0.13-0.41-0.19c-0.08-0.02-0.16-0.05-0.24-0.07c-0.22-0.04-0.46-0.07-0.74-0.08c-0.05,0-0.09-0.01-0.14-0.01
			c-0.32,0-0.67,0.03-1.03,0.08c-0.06,0-0.1,0-0.16,0.01c0.04,0,0.06,0,0.08,0c-0.92,0.12-2,0.37-3.13,0.73
			c-3.25,1.06-8.09,2.6-9.23,2.85c-0.28,0.06-0.57,0.1-0.84,0.12c0.03-0.01,0.04-0.01,0.07-0.01c-0.42,0.03-0.82,0.01-1.15-0.08
			c-0.05-0.01-0.09-0.03-0.14-0.04c-0.32-0.09-0.59-0.25-0.74-0.49c0,0-0.01,0-0.01,0c-0.39-0.71-0.75-1.84,0.51-3.14
			c1.25-1.3,1.4-2.41,1.4-2.41c0.12-0.57,0.14-1.17,0.13-1.77c0-0.15-0.01-0.3-0.03-0.45c-0.01-0.18-0.01-0.36-0.03-0.55
			c0.22-0.05,0.35-0.07,0.35-0.07s8-1.87,11.35-2.44c3.36-0.58,10.94-2.21,14.18-3.76c3.22-1.56,4.84-2.79,5.21-3.73
			c0.37-0.94-1.37-1.49-1.37-1.49s-2.04-0.48-1.76-1.18c0.26-0.71,1.01-1.33,4.21-2.76c3.18-1.42,7.17-2.97,11.19-3.97
			c4-0.98,2.54,0.67,2.54,0.67s-2.4,2.45-2.72,3.4c-0.3,0.95,0.11,0.98,0.42,1.16c0.3,0.17,2.24,0.09,3.55-0.24
			c1.32-0.34,12.01-4.41,18.52-8.14c0.17-0.09,0.33-0.19,0.48-0.28l1.36-2.26l0.01,0c-0.01,0.01-0.01,0-0.01,0.01
			c-0.08,0.12-0.11,0.21-0.18,0.32c-1.95,3.14-2.76,4.95-2.76,4.95s-0.99,1.91-1.08,2.99c-0.08,1.09-0.88,0.94-0.88,0.94
			s-1.66-0.08-4.05,0.93c-0.07,0.03-0.12,0.04-0.2,0.07c0,0-0.09,0.05-0.26,0.14c-0.78,0.37-1.62,0.88-2.5,1.52
			c-0.16,0.11-0.31,0.2-0.48,0.32c-0.09,0.08-0.21,0.14-0.29,0.22c-2.55,2.1-4.32,3.88-5.32,4.98c-0.05,0.06-0.08,0.12-0.13,0.18
			c-0.53,0.59-0.81,0.94-0.81,0.94s-1.47,1.96-0.05,1.96s4.76-1.72,6.04-2.85C319.87,359.81,319.22,360.75,319.22,360.75z
			 M349.89,334.81c-2.24,2.47-3.36,3.5-3.36,3.5s-0.38,0.39-0.8,0.89l-0.04,0.05c0,0.02-0.02,0.05-0.04,0.05h0
			c-0.28,0.34-0.54,0.7-0.7,1.03c-7.31,7.02-15.2,13.42-23.61,19.11c0.17-0.28,0.25-0.51,0.14-0.59h-0.01c0,0,0-0.01,0-0.01
			c-0.45-0.35-2.17,0.89-2.17,0.89s-0.25,0.22-0.64,0.49l0.01-0.01c-0.48,0.35-1.15,0.8-1.84,1.15c-0.2,0.09-0.38,0.18-0.57,0.25
			c-0.12,0.05-0.23,0.09-0.34,0.12c-0.25,0.08-0.5,0.13-0.7,0.11c-1.37-0.11,1.66-3,1.66-3s1.76-1.99,3.91-3.21
			c0.72-0.41,1.48-0.73,2.22-0.86c2.99-0.54,3.55-1.28,5.01-2.41c0.5-0.38,0.85-0.78,1.21-1.33c0.74-1.1,1.51-2.84,3.52-6.49
			c0.11-0.21,0.23-0.4,0.35-0.62h0c3.83-2.14,5.19-2.8,6.11-3.34c4.1-2.44,8.99-5.42,10.28-6.43
			C349.48,334.14,352.12,332.34,349.89,334.81z M374.66,302.87c1.05-2.29,1.92-4.73,2.97-7.1c1.04-2.37,2.55-4.7,2.47-8.09
			c-0.17-0.16-0.29-0.36-0.4-0.55h-0.83c-0.83,0.71-1.98,1.03-2.88,1.65c-1.39,0.98-2.63,2.29-3.98,3.3
			c-0.61,0.46-1.51,0.88-1.92,1.51c-0.69,1.04-0.55,2.8-1.38,3.7v0.54c1.09-0.39,1.61-1.68,2.47-2.33c1.07-0.8,1.95-1.87,3.01-2.62
			c0.67-0.47,1.43-0.71,2.06-1.24c0.43,0.08,0.4,0.13,0.69,0.28c-0.07,3.49-1.9,5.95-3.02,8.51c-0.32,0.75-0.42,1.91-0.96,2.47
			c-0.26,0.26-0.79,0.33-1.09,0.54c-0.92,1.01-1.83,2.02-2.75,3.03c-0.87,1.19-1.27,2.79-2.2,3.98c-0.01,0.39-0.01,0.75,0.13,0.96
			c0.14,0.11,0.38,0.2,0.55,0.28c1.51-1.43,2.96-2.68,4.27-4.25c-5.95,9.36-12.76,18.11-20.31,26.17c0.16-0.2,0.31-0.39,0.45-0.58
			c0.08-0.09,0.12-0.17,0.18-0.25c1.05-1.46,0.32-1.4,0.32-1.4s-0.23-0.03-0.9,0.23c-0.09,0.04-0.2,0.08-0.33,0.14
			c-0.06,0.03-0.09,0.04-0.16,0.07v0.01c-0.5,0.24-1.16,0.59-2.06,1.16c-2.78,1.76-4.74,2.98-4.74,2.98s-5.97,3.41-9.76,5.63
			c-0.04,0.02-0.08,0.04-0.11,0.07c0.01-0.01,0.01-0.02,0.02-0.03c0.03-0.02,0.08-0.04,0.1-0.06c-0.03,0.02-0.08,0.04-0.1,0.06
			c2.73-4.26,5.95-7.97,8.4-10.71c2.99-3.33,6.58-8.75,6.58-8.75s2.22-3.82,2.31-5.58c0.01-0.25-0.02-0.47-0.1-0.62
			c-0.04-0.07-0.16-0.06-0.22-0.1c-0.08-0.05-0.14-0.11-0.25-0.11c-0.83-0.13-2.62,0.77-5.37,2.82c-2.49,1.86-4.5,3.12-6.17,4.01
			c-0.08,0.03-0.14,0.05-0.22,0.08c0.08-0.04,0.14-0.07,0.22-0.1c-0.95,0.43-1.91,0.76-2.77,0.85c-2.23,0.24-3.01-1.09-3.24-2.52
			c-0.12-0.86-0.04-1.75,0.05-2.35c0.24-1.63,1.08-5.36,3.69-6.84c2.61-1.48,6.24-1.43,8.79-1.78c2.56-0.34,3.74-1.08,3.74-1.08
			s4.17-2.65,6.92-7.12c2.76-4.48,5.21-11.7,5.5-18.87c0-0.08-0.01-0.15-0.01-0.23c0.03-0.7,0.01-1.37-0.03-1.99
			c-0.01-0.23-0.04-0.46-0.07-0.68c-0.05-0.47-0.11-0.92-0.18-1.34c-0.04-0.19-0.07-0.38-0.11-0.55c-0.12-0.53-0.24-1.04-0.4-1.5
			l0.01,0c6.86-5.46,13.42-12.39,13.42-12.39s4.36-4.37,6.55-8.17c0.17-0.29,0.3-0.49,0.41-0.65c0.04-0.05,0.08-0.09,0.1-0.13
			c0.09-0.11,0.17-0.2,0.23-0.23c0.01,0,0.02-0.02,0.03-0.02c0.06-0.03,0.1,0,0.13,0.07c0.01,0.02,0.01,0.04,0.01,0.06
			c0.02,0.07,0.03,0.16,0.02,0.28c0,0.02-0.01,0.05-0.01,0.07c0,0.01-0.01,0.03-0.01,0.03s-1.78,5-1.15,7.49c0,0.02,0,0.04,0,0.06
			c-0.01-0.02-0.02-0.03-0.02-0.05c0,0.05,0.02,0.09,0.02,0.15c0.03,0.51,0.09,1,0.2,1.46c0.04,0.14,0.08,0.28,0.12,0.41
			c0.15,0.49,0.35,0.95,0.65,1.28c0,0.01,0,0.02,0.01,0.03c0.07,0.07,0.14,0.07,0.21,0.1c1.54,1.06,5.22-2.86,5.22-2.86
			s2.38-2.74,3.35-7.15c0.88-4.06,0.91-6.1,0.81-7.04c-0.06-0.58-0.16-0.76-0.16-0.76s-0.86-1.35-0.32-2.96
			c0.04-0.12,0.13-0.37,0.21-0.57c0.87-2.39,3.85-9.74,6.42-13C395.42,257.72,387.2,281.72,374.66,302.87z M371.46,305.66
			c-0.18,1.36-1.21,2.58-2.2,3.16v0.14h-0.14c0.24-1.65,1.49-2.11,2.07-3.3H371.46z M381.89,258.14c-0.15,0.55-0.26,0.97-0.26,0.97
			s-0.01,0.08-0.04,0.17c0.01-0.07,0.04-0.18,0.04-0.18S381.74,258.69,381.89,258.14z M398.56,225.47l-0.84,1.42
			c-0.28,0.47-0.32,1.04-0.11,1.54l0.38,0.93c-0.02,0.03-0.03,0.05-0.05,0.08c-0.01,0.01-0.01,0.01-0.02,0.02
			c-0.05,0.08-0.11,0.17-0.16,0.25c-0.64,1-1.42,2.26-2.37,3.84c-4.4,7.24-5.09,13.08-5.09,13.08s-0.41,2.26-0.18,3.59
			c0.05,0.26,0.1,0.49,0.16,0.68c0.01,0.02,0.01,0.04,0.01,0.06c0.07,0.21,0.13,0.38,0.19,0.53c0,0.01,0,0.02,0.01,0.03
			c0,0,0,0,0,0.01c0.08,0.2,0.15,0.37,0.2,0.51c0.01,0.03,0.01,0.04,0.02,0.07c0.03,0.09,0.07,0.19,0.07,0.26
			c0.01,0.16-0.04,0.87-0.24,1.84c-0.04,0.18-0.08,0.37-0.13,0.57c-0.04,0.17-0.08,0.33-0.13,0.51c-0.1,0.38-0.23,0.79-0.38,1.2
			c-0.05,0.14-0.11,0.28-0.16,0.42c-0.18,0.47-0.38,0.95-0.63,1.42c-0.03,0.07-0.06,0.13-0.09,0.2c-1.52,2.82-2.83,3.57-2.83,3.57
			s-2.62,1.89-2.98,0.54c-0.36-1.35-0.26-2.5-0.12-3.35c0.12-0.86,1-5.48,0.87-7.19c-0.12-1.72-1.66-0.34-1.66-0.34
			s-0.36,0.41-1.03,1.27c-0.68,0.86-4.46,5.68-5.91,7.37c-3.43,4.01-6.55,6.9-14.88,13.64c-0.03,0.01-0.06,0.04-0.07,0.05
			c-0.03-0.04-0.05-0.07-0.07-0.09c-0.32-0.52-0.63-0.96-0.92-1.33c-0.37-0.48-0.69-0.86-0.91-1.15c-0.98-1.27-2.78-0.7-4.97-6
			c-2.19-5.27-2.7-9.77-2.65-12.88c0.01-0.44,0.02-0.85,0.05-1.24c0.2-3.09,0.95-4.27,2.36-5.6c1.43-1.32,7.72-0.73,7.72-0.73
			s3.09,0.64,5.85-3.94c2.04-3.4,2.46-8.4,2.17-12.28c-0.09-1.34-0.28-2.55-0.51-3.51c-0.88-3.73-2.16-6.99-7.28-7.52
			c-5.1-0.53-7.41,5.76-7.41,5.76s-1.03,2.4-2.12,3.79c-1.08,1.37-4.02,0.99-4.02,0.99c-1.28-0.16-2.84,0.34-4.39-2.81
			c-1.51-3.14-5-11.4-5-11.4c-1.18-2.81-1.93-5.25-2.38-7.13l-2.51-1.03l-0.01-0.01l2.51,1.01c3.54-1.95,9.59-5.48,13.91-9.13
			c6.49-5.46,12.83-11.19,14.45-12.62c1.61-1.45,3.09-2.61,4.53-2.54c1.43,0.08,2.54,1.1,3.43,4.97c0.89,3.88,1.07,7.07,1.47,8.96
			c0.41,1.88,0.99,4.08,3.24,4.53c2.24,0.45,5.25-1.51,6.38-2.47c0.29-0.24,0.64-0.63,1-1.14c0.01-0.03,0.04-0.06,0.06-0.09
			c0.16-0.22,0.31-0.46,0.46-0.72c0.86-1.51,1.64-3.72,1.56-6.34c0,0,0.23-5.57-2.64-10.84c0,0-1.21-2.13-1.66-2.71
			c-0.3-0.41-0.53-0.83-0.03-1.82c0.13-0.24,0.29-0.54,0.5-0.87c0.63-0.99,1.63-2.25,3.17-3.11c1.55-0.89,3.05-1.1,3.91-1.38
			c0,0,0.96-0.23,2.18-0.9l-0.01-0.02c0,0,0.01,0,0.01-0.01c0.01,0.04,0.03,0.07,0.03,0.1c1.83,5.69,3.93,15.15,3.93,15.15
			s0.65,2.79,0.72,4.07c0.08,1.29-0.22,1.32-0.79,0.64c-0.57-0.68-1.14-0.25-1.14-0.25s-0.61,0.25-0.61,2.68s0.29,8.14,0.75,12.54
			c0.53,5.22,2.14,7.4,2.14,7.4s1.43,2.15,1.83-2c0.01-0.16,0.03-0.24,0.04-0.37c0.07,1.91,0.18,3.81,0.18,5.72
			C398.91,218.03,398.79,221.75,398.56,225.47z"/>
		<path class="st0" d="M128.23,342.36c0.19,0.2,0.37,0.41,0.55,0.61c-0.03-0.03-0.05-0.07-0.05-0.07L128.23,342.36z"/>
		<path class="st0" d="M100.86,179.51L100.86,179.51L100.86,179.51z"/>
		<polygon class="st0" points="236.58,320.36 236.59,320.36 236.58,320.36 		"/>
		<path class="st0" d="M312.73,313.62c-4-0.99-7.37,0.99-11.53,0.68c-0.39-0.42-0.69-0.66-0.96-1.24c-2.9,0.08-6.1,6.54-3.16,8.51
			c1.58,1.07,6.05,0.45,7.96,0c1.07-0.24,2.72-0.48,3.56,0.13c1.15,0.86,0.95,4.1,0.54,5.91c-0.46,3.39-0.92,6.77-1.37,10.16
			c-0.4,2.05-0.82,4.11-1.24,6.17c2.11-0.01,4.09-2.17,4.68-3.71c0.35-0.89,0.16-1.74,0.41-2.74c0.72-2.88,0.82-6.32,1.51-9.33
			c0.44-1.95,0.14-3.82,0.54-5.62c0.3-1.36,0.5-5.88,0.15-7.15C313.62,314.72,313.09,314.17,312.73,313.62z"/>
		<path class="st0" d="M118.26,83.07v-0.28h-0.55c-0.64,0.47-2.34,0.76-3.15,1.23c0.11,0.47,0.07,0.35,0.41,0.55
			c-0.48,1.34-2.07,2.34-2.89,3.44c-1.28,1.74-2.72,3.36-3.98,5.08c-0.42,0.57-0.71,1.46-1.23,1.92c-0.82,0.72-3.17,0.64-4.11,1.37
			h-0.27c0.2-1.15,3.15-4.83,3.98-5.62v-0.14c-1.42,0.2-2.51,0.95-3.44,1.64c0.16,0.32,0.13,0.25,0.42,0.42
			c-0.51,0.83-1.25,1.44-1.79,2.19c-0.68,0.96-1.06,2.09-1.78,3.02c0.05,0.14,0.09,0.27,0.13,0.41c0.88-0.08,4.53-1.24,5.08-1.64
			h0.4c-0.55,1.67-2.74,3.96-3.7,5.49c-0.54,0.86-0.87,1.98-1.64,2.61c0.13,0.15-0.01,0,0.13,0.13c0.3,0.18,2.82-0.48,3.3-0.82
			c0.29,0.05,0.26,0.04,0.41,0.13c0.15,0.24-1.67,3.44-2.06,3.85v0.14c0.68-0.08,1.74-0.2,2.2-0.55c1.33-1.04,1.63-3.25,2.61-4.67
			c-0.05-0.23-0.09-0.46-0.14-0.68c-0.77-0.14-2.36,0.07-3.01,0.55h-0.14c0.32-1.65,3.01-4.67,3.98-6.04
			c1.58-2.24,3.05-4.4,4.66-6.59c0.84-1.15,2.03-2.16,2.88-3.29C115.92,85.64,116.94,83.95,118.26,83.07z"/>
		<path class="st0" d="M156.27,312.8c-0.21,0.47-0.18,1.23-0.4,1.78c-1.19,2.91-1.58,3.53,0.27,6.31c0.83,0,0.93-0.13,1.37-0.41
			C158.06,318.2,158.14,313.87,156.27,312.8z"/>
		<path class="st0" d="M162.04,310.33c-0.57-0.94-1.7-1.18-2.47-1.92c-0.24-0.08-0.14-0.03-0.28-0.13c1.77-0.92,3.65-1.92,5.49-2.74
			c0.5,0.54,2.78,2.75,3.57,2.33c0.13-0.04,0.27-0.08,0.41-0.13c-0.05-0.78-0.08-1.56-0.14-2.34c-1.74-1.73-4.28-3.16-7.14-3.7v0.13
			h-0.14c0.32,0.95,1.38,1.85,2.2,2.33v0.41c-1.62,0.23-3.07,1.02-4.53,1.52c-1,0.32-2.21,0.28-3.03,0.82h-0.41
			c0.6-1.66,2.56-3.02,3.57-4.4c2-2.69,3.58-5.99,6.73-7.55c-0.08-1.27-3.73-3.88-5.08-3.02c-0.34,0.17-0.1-0.07-0.27,0.26
			c-0.21,0.5,0.47,1.12,0.27,1.92c-0.26,1.06-2.88,6.04-3.57,6.59v0.14c-1.41-0.49-2.49-1.82-3.84-2.47
			c0.24-1.27,1.3-2.24,1.92-3.16c1.58-2.37,2.83-4.63,5.22-6.18c-0.02-1.83-2.97-3.73-4.95-3.7c0.01,0.84,0.43,1.31,0.28,2.05
			c-0.49,2.24-1.51,4.5-2.33,6.45c-0.54,1.26-0.79,2.77-1.65,3.7c-0.18,0.11-1.71-0.02-2.06-0.26c-0.52-0.01-1.03,0.02-1.37,0.13
			v0.28c2.31,2.24,4.81,3,7.96,4.4c-0.44,2.27-2.73,3.79-3.85,5.5c-0.58,0-1.04-0.04-1.37-0.28c-0.32,0.06-0.34,0.08-0.55,0.14
			c0.06,2.02,1.74,3.74,3.42,4.12c1.13-1.27,2.56-1.88,4.26-2.6c1.56,1.62,2.01,3.94,2.61,6.57c0.26,1.15-0.17,2.42,0.14,3.42
			c0.53,1.78,1.47,2.32,2.33,3.56h0.97c0.6-3.23-0.88-6.35-1.65-8.92C162.5,312.53,162.27,311.43,162.04,310.33z"/>
		<path class="st0" d="M196.61,370.84c1.04,0.38,1.89,1.4,2.88,1.92c2.64,1.38,7.01,2.52,10.98,1.65c1.95-0.43,3.97-0.43,4.52-2.2
			c0.62-0.97-0.24-2.32-0.54-2.86c-1.28-2.29-2.97-3.78-5.08-5.22c-6.99-4.78-17.29-9.62-29.23-9.32c-0.58,0.37-1.74,0.08-2.47,0.27
			c-1,0.26-1.61,0.78-2.33,1.23c-0.03,3.37,5.01,5.2,7.82,5.89c1.68,0.42,3.15-0.37,4.12-0.68c0.74-2.85-2.69-3.26-4.26-4.67h-0.28
			v-0.14c10.53-0.41,18.41,2.53,24.43,7.01c1.5,1.12,3.22,2.71,3.98,4.53c0.28,0.68,0.4,1.79,0,2.34c-0.55,1.53-2.38,1.39-4.12,1.79
			c-4.03,0.93-9.56-1.36-11.4-3.16c-0.38,0.66,0.17,1.66-0.41,2.34c-0.61,1.66-2.73,1.22-4.67,1.64c-3.17,0.69-8.16-0.94-10.02-2.19
			c-0.52-0.37-0.89-0.99-1.37-1.38c-0.03-0.36-0.07-0.47-0.14-0.69c0.28-0.25,0.61-0.65,0.82-0.95c3.95-0.29,5.96-0.09,8.24,2.07
			c-0.06,0.26-0.04,0.25-0.14,0.39c-0.25,0.53-0.85,0.59-1.64,0.56v0.25c1.45,0.02,2.05-0.2,2.88-0.68
			c0.04-0.28,0.09-0.55,0.14-0.82c-0.47-0.49-0.8-1.13-1.38-1.52c-2.25-1.48-6.9-2.22-9.46-0.54c-0.4,1.95,0.8,3,1.92,3.83
			c2.24,1.7,4.13,2.67,7.28,3.57c1.01,0.28,1.91,0.03,3.02,0.26c0.97,0.22,2.65,0.27,3.7,0c1.75-0.45,4.18-2.29,2.19-4.4
			L196.61,370.84L196.61,370.84z M183.99,357.81c0.49,0.33,0.76,1.01,1.24,1.38c-0.01,0.35-0.01,0.52-0.13,0.69
			c-0.9,2.42-5.92,0.63-7.14-0.28c-0.38-0.28-0.53-0.86-0.82-1.23c0.05-0.28,0.04-0.26,0.14-0.4c0.38-1.06,1.45-0.7,2.33-1.23
			C181.34,356.74,182.91,357.08,183.99,357.81z"/>
		<path class="st0" d="M232.3,384.98c0.05-0.13,0.08-0.26,0.13-0.4c-3.38-0.14-6.78-0.27-10.15-0.41c-0.43,0.28-1.08,0.12-1.65,0.27
			c-0.7,0.21-1.48,0.53-2.06,0.83c0.09,0.23,0.03,0.13,0.14,0.27c0.83,0.65,5.63,0.69,6.59,0h0.27v-0.27c-1.45-0.46-4.11,0.7-5.21,0
			h-0.14v-0.14c3.65-0.25,7.73-0.15,11.53-0.14c-0.37,0.25-1.14,0.18-1.51,0.41c-0.14,0.05-0.27,0.09-0.41,0.13v0.28
			c0.83,0.12,1.65,0.26,2.47,0.4c0.13,0.14-0.01,0.01,0.13,0.13c-1.21,0.82-4.34,0.49-5.49-0.13v-0.28
			c-0.62-0.28-3.44,0.29-3.98,0.4c-0.46,0.11-0.94-0.05-1.24,0.13c-0.57,0.04-0.63,0.1-0.96,0.28c0.08,0.44,0.12,0.4,0.28,0.68
			c0.88,0.21,2.41,0.22,3.42,0.54v-0.13h0.14v-0.13c-0.51-0.2-1.94-0.08-2.47-0.39h-0.28c0.46-0.37,4.94-0.97,5.77-0.41
			c0.23,0.08,0.13,0.03,0.28,0.13c-0.74,0.13-1.47,0.28-2.2,0.4c0.09,0.22,0.03,0.13,0.14,0.27c0.22,0.16,0.67,0.16,1.09,0.13
			c-0.14,0.26-0.19,0.38-0.41,0.55c0.05,0.08,0.09,0.18,0.14,0.27c1.94,0,3.57-0.2,5.21-0.54c0.98-0.22,2.17,0.18,2.88-0.28h1.11
			v-0.27c-1.87,0-6.54-0.19-7.68,0.55h-0.41c0.11-0.15-0.01-0.01,0.13-0.14c0.54-0.62,1.63-0.31,2.61-0.54
			c1.53-0.36,4.05-0.98,5.36,0c0.36,0.22,0.13-0.03,0.13,0.4c0.37-0.01,0.63-0.01,0.82-0.12h0.96v-0.28
			c-1.24-0.3-3.09-0.87-4.12-1.5C233.07,385.58,233.34,385.08,232.3,384.98z"/>
		<path class="st0" d="M381.34,278.09c-0.5,0.45-1.22,0.56-1.78,0.96c-1.74,1.25-3.55,3.33-4.8,5.07c-0.99,1.4-1.85,2.93-2.74,4.4
			c-0.39,0.66-0.47,1.4-0.96,1.92v0.28c1.2-0.2,1.9-0.98,2.75-1.51c2.29-1.42,4.33-2.71,6.44-4.25c1.02-0.75,1.79-1.91,2.88-2.62
			c0.1-1.64,0.43-2.93-0.28-4.12C382.42,278.13,381.93,278.08,381.34,278.09z M379.69,283.02c-0.83,0.61-1.62,1.47-2.47,2.06
			c-0.72,0.51-1.59,0.78-2.19,1.38h-0.14c0.45-1.42,2.83-3.85,3.98-4.66c0.59-0.43,1.33-0.54,1.93-0.97h0.54
			c0.13,0.16,0.12,0.15,0.28,0.28C381.49,282.14,380.37,282.51,379.69,283.02z"/>
		<path class="st0" d="M311.35,359.19h-1.38c-0.91,0.72-2.4,0.82-3.43,1.38c-0.92,0.49-2.02,1.15-2.88,1.78
			c-0.72,0.51-1.13,1.45-1.79,2.05c0.01,0.68,0.03,0.8,0.56,0.96c0.13,0.1,0.03,0.07,0.25,0.14c0.15-0.16,0.28-0.22,0.42-0.42
			c0.12-0.08-0.09-0.36-0.13-0.8c1.33-1.34,2.32-2.07,4.25-2.88c0.51-0.21,1.55-0.81,2.2-0.41h0.27c-0.09,1.36-3.18,5.52-4.12,6.18
			v0.39c2.53-0.65,4.21-5.7,5.91-7.54c-0.05-0.32-0.04-0.38-0.14-0.54L311.35,359.19z"/>
		<path class="st0" d="M378.6,219.76c0.3,0.76,0.88,2.01,1.51,2.47c0.3,0.22,0.45,0.13,0.68,0.41c4.55,0.39,6.39-7.44,4.54-11.94
			c-0.34-0.78-1.79-3.07-3.16-2.19h-0.28c0.09-0.24,0.04-0.13,0.14-0.28c0-0.65-0.08-0.87-0.26-1.23c-0.28-0.04-0.54-0.09-0.83-0.13
			c-0.13,0.11-0.04,0.05-0.27,0.13c0.09,0.83,0.38,0.86,0.41,1.78C378.86,210.8,376.97,215.65,378.6,219.76z M380.1,212.49
			c0.3-0.74,0.92-1.22,1.37-1.79c0.28-0.05,0.26-0.03,0.4-0.14c1.04,0,1.34,0.2,1.92,0.55c1.04,2.47,1.2,6.77-0.54,8.65
			c-0.26,0.29-0.79,0.4-1.09,0.68C379.29,220.22,379.06,214.98,380.1,212.49z"/>
		<path class="st0" d="M389.84,218.93v-2.19c-0.34-1.57-0.21-3.66-0.54-5.21c-0.66-3.06-0.08-6.68-1.23-9.2
			c-0.68-0.17-1.36-0.29-2.33-0.28c-0.36,0.37-0.62,0.54-0.55,0.97c0.29,1.24,1.9,1.5,2.34,2.74c0.05,0.6,0.08,1.19,0.13,1.79
			c0.47,1.95,0.38,4.46,0.82,6.45v1.65c0.22,1,0.55,3.59,0.27,4.4c-0.48,1.42-2.03,2.7-3.01,3.7c-2.61,2.62-5.69,5.95-10.31,6.44
			c-0.08,0.24-0.04,0.13-0.14,0.28c0.08,1.71,1.66,1.37,2.75,2.06c0.28-0.05,0.54-0.09,0.82-0.14c0.42-0.25,0.67-0.84,0.96-1.24
			c0.7-0.91,1.96-1.39,2.61-2.33h0.13c0.01,4.18,0.1,8.88,0.14,12.9h0.4c0.94-4.07,0.87-9.06,0.83-14.01
			c1.8-1.68,2.96-4.13,4.8-5.76v-0.27h0.14c0.02,4.34,0.13,8.78,0.13,13.17c0,1.41-0.36,4.78,0,5.36v0.83h0.28
			c0.37-1.47,0.46-3.55,0.82-5.21v-2.34c0.41-1.85,0.4-5.42,0.01-7.28C389.63,223.9,390.31,221.09,389.84,218.93z"/>
		<path class="st0" d="M300.37,369.35c-0.82,0.72-2.79,0.8-3.7,1.51h-0.14c0.36-0.52,1.01-0.74,1.38-1.23
			c0.26-0.37,0.38-0.79,0.68-1.1c-0.07-0.28-0.04-0.26-0.13-0.4v-0.28c-4-0.73-10.69,2.72-12.76,4.54
			c-0.54,0.47-0.86,1.17-1.38,1.66c0.01,0.38,0.05,0.58,0.13,0.82c2.44,0.16,7-1.33,7.54-3.29c0.11-0.08,0.04-0.01,0-0.14v-0.27
			c-1.66-0.09-3.9,0.25-4.93,1.23h-0.14c0.9-1.37,4.24-2.59,6.03-3.16c0.6-0.18,1.91-0.51,2.49-0.13c0.13,0.05,0.26,0.09,0.4,0.13
			c-0.33,1.38-2.28,2.91-3.57,3.29v0.28c2.1-0.49,4.03-1.44,5.9-2.2c1.28-0.52,2.72-0.66,3.85-1.37c0.8-0.52,3.5-4.19,3.7-5.21
			C302.54,364.49,302.28,367.62,300.37,369.35z M289.53,372.09v0.41c-0.26,0.17-0.45,0.54-0.68,0.68c-0.71,0.42-1.66,0.38-2.34,0.83
			c-0.31-0.04-0.38-0.03-0.54-0.14h-0.13C286.19,372.7,288.46,372.16,289.53,372.09z"/>
		<path class="st0" d="M316.44,266.53c-1.54-0.95-1.75-5.81-2.34-7.95c-1.13-4.21-1.68-8.63-2.88-12.9
			c-0.77-2.74-1.82-5.57-1.51-8.93c0.48-0.48,0.8-1.11,1.37-1.51c0.77-0.53,2.01-0.8,2.61-1.51c0.09-0.18-0.07-0.44-0.14-0.83
			c-1.59,0.25-3.04,1.21-4.39,1.78c-2.75,1.17-5.44,1.87-8.23,3.02c-0.87,0.36-1.78,0.98-2.89,1.09v0.83
			c0.1,0.05,0.19,0.08,0.28,0.13c0.15,0.16,3.59-1.36,4.67-0.4c1.23,0.43,1.08,2.04,1.78,3.02c-0.21,2.13-2.34,5.4-3.16,7.28
			c-2.02,4.6-4.06,8.98-6.3,13.31c-0.86,1.66-1.89,4.62-3.02,5.9v0.13c-0.75-1.03-0.68-3.65-1.09-5.07
			c-1.22-4.28-2.01-8.98-3.3-13.17c-0.23-0.8-1.05-4.44-0.54-5.21c0.18-1.89,2.85-2.72,4.39-3.29c-0.04-0.32-0.08-0.64-0.13-0.97
			c-2.43,0.37-4.95,1.66-7.14,2.48c-2.06,0.78-3.95,1.09-6.04,1.79c-1.03,0.36-2.2,0.95-3.42,1.09v0.14h-0.14
			c0.06,0.38,0.08,0.59,0.27,0.82c0.56,0.38,3.57-1.22,4.81-0.26c1.93,0.66,1.99,3.72,2.61,5.76c1.67,5.48,2.52,11.54,4.12,17.16
			c0.39,1.41,1.36,5.84,0.41,7c-0.51,1.53-3.07,2.13-4.53,2.75c0.05,0.28,0.08,0.55,0.12,0.82c2.11-0.32,4.03-1.29,5.92-1.93
			c3.69-1.24,7.17-2.26,10.72-3.57c-0.06-0.32-0.09-0.65-0.14-0.96c-1.51,0.4-2.68,0.86-4.8,0.82c-0.28-0.24-0.54-0.46-0.82-0.69
			c-0.23-0.72-0.47-1.46-0.69-2.19c0.15-1.74,2.37-4.93,3.16-6.45c2.34-4.48,4.38-9.02,6.44-13.72c0.8-1.8,2.62-4.42,2.89-6.44
			c0.64,0.38,0.46,1.52,0.68,2.33c0.47,1.65,0.73,3.4,1.23,5.21c0.98,3.47,1.36,7.19,2.34,10.84c0.36,1.34,0.91,3.64,0.28,5.08
			c-0.62,1.4-2.92,2.34-4.39,2.88c0.06,0.29,0.12,0.64,0.28,0.83c0.01,0.03,3.13-1,3.69-1.24c3.83-1.63,7.76-3.33,11.66-4.8
			c-0.05-0.33-0.08-0.66-0.13-0.95C319.99,266.1,317.77,267.37,316.44,266.53z"/>
		<path class="st0" d="M253.01,113.25c0.66,0.33,0.66,1.15,0.97,1.79c0.64,1.28,1.51,2.84,1.92,4.26v1.1
			c0.32,0.87,1.37,0.98,2.07,1.51c0.54-0.08,0.74-0.21,1.09-0.41c-0.22-2.61-1.82-4.77-2.74-6.86c-0.28-0.65-0.72-1.57-0.83-2.19
			c-0.08-0.38,0.22-0.59,0-0.96c-0.18-0.43-0.24-0.3-0.53-0.55c-0.21-0.14-0.11-0.06,0-0.27c0.23-0.5,0.73-0.99,0.95-1.51
			c0.46-1.08,0.44-2,1.38-2.61c-0.14-1.42-2.21-1.59-3.84-1.51c-0.2,0.14-0.54,0.22-0.83,0.26c0.18,0.36,0.28,0.43,0.69,0.54
			c0.39,4.03-2.43,7.72-4.27,10.16c-0.71,0.97-1.92,1.58-2.6,2.62h-0.13v0.13C248.12,118.45,252.09,114.67,253.01,113.25z"/>
		<path class="st0" d="M225.71,115.19c0.69,0.23,1.37,0.45,2.07,0.68c0.55,0.01,1.13-0.01,1.5-0.13c-0.04-2.27-1.27-3.17-2.06-4.67
			c-0.39-0.76-0.61-1.81-1.23-2.34c0.24-0.83,2.52-1.07,3.43-1.37c2.23-0.73,4.75-1.46,7.01-2.2c1.06-0.34,2.31-0.27,3.16-0.82
			c0.51,0.05,0.76,0.1,0.97,0.4c0.49,0.74,0.9,5.79,0.54,7.28c-1.39,5.77-3.11,10.28-6.72,13.73v0.14c1.33-0.22,1.97-1.51,2.87-2.19
			c3.65-2.76,6.12-6.84,7.42-11.95c0.76-3-0.49-5.94,0.69-8.5h-0.13c-0.26-0.65-3.75-1.92-4.82-1.92c-0.57,0.61-1.38,1.44-2.19,1.78
			c-1.24,0.53-2.91,0.38-3.98,1.09c-0.99-0.08-1.75-1.98-1.09-2.74c-0.04-0.31-0.03-0.39-0.14-0.55c-0.83-0.67-2.94-0.59-4.4-0.55
			c-0.47,0.43-0.88,0.52-1.1,1.24h-0.13c-0.08,0.26,0.07,0.17,0.13,0.27c0.09,0.06,0.56-0.02,0.83,0.14
			c1.56,0.16,1.52,1.96,2.34,2.88c-0.09,0.24-0.04,0.14-0.14,0.28c-0.54,0.43-4.51,1.57-5.36,1.79c-0.64,0.16-1.43-0.24-1.92-0.28
			c-1.16-0.1-2.2,0.55-2.89,0.96c0.38,0.55,1.51,0.41,1.92,0.96C223.74,110.54,224.4,113.03,225.71,115.19z"/>
		<path class="st0" d="M238.33,173.09c2.75,0.83,4.72,3.94,6.3,6.04c0.7,0.92,1.78,1.67,2.47,2.61c2.95,3.91,6.27,7.45,9.19,11.4
			c1.13,1.53,2.67,2.86,3.7,4.53c0.62-0.01,0.75-0.09,1.1-0.28c0.74-3.22,1.15-6.47,2.07-9.74c0.41-1.5,0.93-3.26,1.09-4.94
			c1.13,0.4,2.05,2.1,2.75,3.02c2.15,2.85,5.17,5.21,7.14,8.23c0.57-0.03,0.63-0.09,0.96-0.27c0.62-4.66,1.21-9.32,1.8-13.99v-1.37
			c0.62-2.78,0.47-6.12,1.09-8.92c0.83-3.78-0.35-7.45,3.43-8.38c0.07-0.37,0.2-0.51,0-0.83c-0.08-0.23-0.04-0.13-0.14-0.28
			c-0.15-0.11-0.13-0.08-0.4-0.13c-1.05,0.77-3.92,1.29-5.35,1.65c-1.09,0.26-2.21,0.04-3.02,0.55c-0.13,0.05-0.27,0.09-0.41,0.13
			c0.05,0.28,0.08,0.56,0.14,0.83c1.57,0.51,3.01-0.11,3.7,1.24c0.45,0.88,0.38,4.01,0.13,5.22c-0.87,4.03-0.51,8.64-1.38,12.62
			c-0.3,1.38,0.08,4.06-0.54,5.08v0.28c-0.83-0.39-1.38-1.48-1.92-2.2c-1.23-1.62-3.04-2.91-4.26-4.53
			c-0.74-0.97-1.51-2.14-2.47-2.89c0.12-2.64,0.89-5.41,1.52-7.82c0.45-1.81,0.47-3.49,1.37-4.81c0.52-0.75,1.75-1.23,2.61-1.65
			c-0.01-0.34-0.01-0.51-0.13-0.68c-0.05-0.14-0.08-0.28-0.13-0.41c-1.89,0.28-3.48,1.18-5.22,1.65c-1.58,0.43-3.16,0.32-4.4,0.96
			c0.04,0.32,0.03,0.39,0.14,0.55c0.05,0.14,0.08,0.28,0.14,0.41c4.82-0.27,4.09,2.35,3.16,6.04c-0.29,1.13-0.09,2.68-0.69,3.57
			v0.27h-0.14c-0.99-1.5-2.47-2.95-3.7-4.25c-0.51-0.46-1.01-0.91-1.51-1.37c-0.37-0.48-0.55-1.08-0.97-1.51
			c0.09-1.51,1.32-1.9,2.48-2.33c-0.05-0.63-0.18-0.71-0.41-1.1c-3.58,0.53-6.69,2.53-10.71,2.74v0.14h-0.13
			c0.01,0.35,0.01,0.51,0.13,0.68v0.27c0.79,0.14,1.96-0.18,2.89,0.14c1.48,0.53,2.8,2.25,3.7,3.44c1.34,1.78,3.45,3.29,4.79,5.07
			c0.71,0.95,1.51,2.2,2.48,2.89c-0.13,2.41-0.8,4.95-1.37,7.14c-0.3,1.12-0.12,2.55-0.68,3.42c-0.09,0.24-0.04,0.13-0.14,0.28
			c-1.31-2.49-3.84-4.38-5.49-6.59c-3.19-4.23-6.72-8.04-10.02-12.21c0-0.58,0.03-0.93,0.27-1.24c0.25-0.8,1.25-1.54,2.19-1.65
			c0.06-0.42,0.11-0.47-0.13-0.83c-0.06-0.13-0.09-0.27-0.14-0.41c-2.79,0.43-5.28,1.72-7.95,2.48c-1.39,0.39-3.22,0.2-4.26,0.96
			c-0.14,0.04-0.28,0.09-0.41,0.14c0.08,0.53,0.21,0.61,0.41,0.96C236.12,173.07,237.28,172.77,238.33,173.09z"/>
		<path class="st0" d="M368.29,158.54c-0.32,4.77-4.4,6.28-8.77,4.39c-3.12-1.34-5.61-4.29-7.56-6.87
			c-0.65-0.86-1.67-1.58-2.33-2.47c-0.62-0.83-1.06-1.75-1.79-2.47v-0.13h-0.27c0.38,1.48,1.23,2.83,1.78,4.12
			c2.32,5.34,5.27,9.07,9.75,12.21c2.11,1.49,5.62,3.83,8.65,1.65c5.29-3.81,2.72-18,0.54-23.33c-0.57-1.4-1.02-2.5-1.65-3.7
			c-1.03-1.99-2.12-4.91-5.07-4.94c-0.73,0.62-1.51,1.12-1.92,2.05c-2.69,6.11,2.84,13,5.36,16.34
			C365.89,156.57,366.93,157.86,368.29,158.54z M362.81,143.59h0.68c1.34,1.4,2.59,2.73,3.43,4.66c0.45,1.04,0.53,2.79,1.09,3.71
			c-0.08,0.24-0.02,0.14-0.12,0.28c-0.36,0.35-1.87-1.45-2.2-1.78C364.16,148.92,361.08,146.22,362.81,143.59z"/>
		<path class="st0" d="M89.99,144.83c2.14-2.2,6.66-7.7,6.59-11.8c-0.22-0.21-0.41-0.56-0.55-0.82c-0.86-0.21-1.95-0.3-3.16-0.28
			c-0.31,1.11-0.95,2.05-1.37,3.01c-0.93,2.13-1.76,4.25-2.61,6.32c-0.71,1.72-1.16,4.49-2.19,5.89v0.28
			C88.14,147.17,89.12,145.72,89.99,144.83z M90.54,140.44c0.82-1.95,1.38-3.88,2.33-5.62c0.53,0.01,0.93,0.05,1.24,0.27
			c0.33,0.18,0.09-0.07,0.27,0.28c0.28,0.68-0.62,1.77-0.95,2.33c-0.63,1.04-0.97,2.05-1.65,3.02c-0.62,0.88-1.59,1.57-2.19,2.47
			h-0.14C89.61,142.15,90.17,141.3,90.54,140.44z"/>
		<path class="st0" d="M77.36,147.56h1.92c0.32-0.41,0.64-0.83,0.96-1.24c1.15-1.21,2.66-2.44,3.56-3.84h0.41v1.91
			c-1.05,0.95-2.68,2.41-3.16,3.85v1.09c-0.7,3.05,0.78,4.61,3.43,4.39c1.74-1.61,4.59-2.94,4.26-6.17
			c-0.15-0.12-0.01,0.02-0.14-0.13c-0.28,0.06-0.26,0.03-0.41,0.13c-1,0.52-2.68,4.95-4.67,3.7c-1.01,0.01-1.11-0.19-1.65-0.55
			c0.07-1.3,2.29-3.69,3.17-4.25c0.11-2.09,0.65-4.34,0.41-6.31c-0.14-0.05-0.28-0.09-0.41-0.14c-0.49-0.16-0.87,0.58-1.24,0.96
			c-1,1.01-2.25,2.07-3.02,3.29c-1.16-0.01-4.91-0.05-5.63,0.41h-0.41c0.34-0.89,2.99-3.81,2.2-5.08c-0.05-0.14-0.08-0.28-0.14-0.41
			c-2.5,0.01-5.52,4.46-6.31,6.31c-0.4,0.93-0.4,1.99-0.96,2.75v0.14c1.87-0.23,3.75-0.46,5.62-0.69
			C75.87,147.54,76.85,147.88,77.36,147.56z M72.69,144.96h-0.83c0.38-1.51,1.86-3.25,3.7-3.3v0.68c-0.64,0.83-1.28,1.65-1.92,2.47
			C73.26,144.82,72.9,144.82,72.69,144.96z"/>
		<path class="st0" d="M144.46,237.19v0.13c0.22,0.3,0.21,0.92,0.41,1.24c-0.08,0.23-0.03,0.13-0.14,0.28
			c-0.57,0.38-1.4,0.21-2.19,0.4c-1.63,0.41-6.89,1.69-8.09,0.55c-0.77-0.25-1.28-1.26-1.38-2.19c-0.34,0.01-0.51,0.01-0.68,0.13
			h-0.28c0.51,2.66,1.01,5.3,1.51,7.96h0.14v0.14c4.8-0.83,9.61-1.66,14.41-2.48c-0.69-2.53-1.37-5.04-2.06-7.56
			c-0.38-0.58-1.62-0.51-2.33-0.81c-1.2-0.5-2.69-1.6-3.43-2.61c-2.21-3.04-4.64-10.23-3.02-15.65c1.32-4.4,4.17-7.38,8.78-8.52
			c2.34-0.56,4.84,0.22,6.32,0.97c4.19,2.16,5.98,5.22,7.27,10.29c1.67,6.55-0.45,12.56-4.8,14.55c0.27,2.65,0.55,5.31,0.82,7.96
			c1.54-0.04,2.96-0.37,4.26-0.68c2.18-0.53,4.41-0.61,6.45-1.09c1.5-0.36,3.65-0.06,4.8-0.83c0.27-0.59-0.86-4.68-1.1-5.63
			c-0.2-0.8-0.03-1.6-0.41-2.19v-0.28c-0.32,0.05-0.64,0.09-0.96,0.14c0.06,4.15-2.9,3.58-6.18,4.4c-1.64,0.41-3.64,0.93-5.49,0.96
			c0-0.59,0-1.19,0-1.78c0.16-0.29,2.56-1.34,3.01-1.65c1.6-1.11,3.23-2.86,4.26-4.52c0.7-1.13,1.27-2.65,1.64-3.99
			c0.47-1.7,0.53-4.06,0.14-5.76c-0.28-1.17-0.17-2.09-0.55-3.16c-1.48-4.12-4.59-7.12-8.51-8.78c-1.78-0.75-3.79-0.78-5.9-1.23
			c-1.87-0.41-5.23,0.42-6.59,0.83c-6.61,1.95-11.09,5.13-13.18,11.53c-0.82,2.53-0.57,6.02,0.14,8.37
			C133.18,232.04,137.71,237.09,144.46,237.19z"/>
		<path class="st0" d="M164.09,311.02c-0.28,1.18,2.64,3.84,3.57,4.54c0.46,0.35,1.08,1.13,1.78,0.82c0.36-0.03,0.47-0.07,0.69-0.14
			c0.16-0.37,0.4-0.83,0.14-1.23C170.19,313.28,165.73,311.35,164.09,311.02z"/>
		<path class="st0" d="M195.94,317.6c0.14-0.06,0.28-0.09,0.41-0.15c-0.07-1.79-3.5-2.55-5.36-2.04c-0.83,0.23-1.78,0.74-2.61,0.96
			c-0.64,0.05-1.28,0.09-1.92,0.13c-0.22-2.23-1.32-3.97-1.37-6.3c2.06-0.04,4.65-0.32,6.03-1.1c-0.03-0.69-0.16-0.69-0.4-1.09
			c-1.58-0.37-4.27-0.43-5.5,0.4c-0.35-0.01-0.51-0.01-0.68-0.13c-0.77-0.97-0.4-2.95-1.1-3.98v-0.55c1.48-0.32,3.89-0.58,4.66-1.65
			c0.11-0.14,0.05-0.04,0.14-0.26c-0.12-0.12-0.18-0.24-0.27-0.41c-2.15-0.54-3.08-0.17-4.94,0.54c-0.58-1.86,0.12-3.33-1.78-3.84
			c0.41-0.71,1.75-0.68,2.61-0.96c1.32-0.44,2.83-1.03,3.98-1.65c0.09-0.24,0.03-0.14,0.14-0.28c-0.08-0.69-0.27-0.67-0.55-1.1
			c-1.98-0.15-3.56,0.04-4.67,1.1h-0.26c0.16-1.02,0.8-2.49,1.37-3.29c0.38-0.56,1.11-0.49,1.38-1.24h0.13v-0.15
			c-0.28-0.36-0.55-0.73-0.83-1.09c-0.64-0.45-1.58-0.5-2.19-0.97c-0.91-0.01-1.79-0.01-2.33,0.27c0.08,0.53,0.31,0.86,0.41,1.24
			c0.38,1.42-0.98,5.8-1.51,6.45c-0.42,0.54-5.38,2.34-6.72,1.92c-0.32-0.1-1.25-0.57-1.51-0.83c-0.11-0.14-0.05-0.03-0.14-0.26
			c1.94-1.83,3.35-5.91,6.04-6.72c0.05-0.22,0.09-0.46,0.14-0.68c-0.67-0.69-3.94-4.12-5.63-3.03c-0.13,0.05-0.27,0.08-0.4,0.13
			c0,1.17,0.58,2.05,0.27,3.29c-0.63,2.47-2.04,5.4-3.29,7.42c-0.76,1.21-2.4,2.53-2.47,4.26c2.24-0.22,2.78-2.53,4.52-3.16
			c0.51,0.47,1.01,0.93,1.51,1.38c0.72,1.08,0.58,2.7,0.96,4.11c0.64,2.97,1.29,5.95,1.92,8.92c0.09,1.47,0.18,2.93,0.28,4.4
			c0.37,1.32,1.45,3.63,2.88,3.95c0.23,0.11,0.42,0.08,0.68-0.14c0.48-0.39,0.22-1.08,0.55-1.64c0.77-0.55,2.13-0.41,3.16-0.69
			c2.8-0.74,6.08-0.69,9.19-1.38C192.33,317.41,194.77,318.28,195.94,317.6z M173.7,299.77c0.22-0.38,3.86-0.95,4.26-0.69
			c1.45,0.68,0.94,2.82,1.78,4.12c-0.29,0.68-3.63,1.69-4.67,1.78C174.89,303.53,174.65,300.56,173.7,299.77z M175.49,306.49
			c1.05-0.09,3.76-0.99,4.53-1.51h0.14c0.26,1.25,0.41,3.4,1.1,4.4c-0.5,1.21-3.52,1.1-4.67,1.79
			C176.1,310.88,175.47,307.44,175.49,306.49z M177.96,318.02c-0.29-1.96-1.22-3.69-1.24-5.76c2.11-0.04,3.19-0.89,4.93-1.11
			c0.11,1.28,0.9,4.89,1.51,5.76c0,0.08,0,0.2,0,0.28C181.52,317.55,179.79,318.03,177.96,318.02z"/>
		<path class="st0" d="M65.55,217.14c0.29,0.08,0.49,0.13,0.68,0.28c2.71-0.18,3.27-2.36,4.66-3.84c1.18,2.84,0.3,7.82-2.33,8.51
			c-1.13,0.78-2.78-0.23-3.43-0.82c-2.25-2.08-2.72-5.24-3.56-8.78c-0.29-1.19,0.11-3.62-0.41-4.54c0.02-1.4,0.32-3.93-0.42-4.66
			v-0.14l-0.27,0.01c-0.05,8.55-0.5,21.74,6.18,23.61c2.42,0.67,3.77-0.94,4.53-2.07c2.73-4.05,1.96-11.95-0.68-15.36
			c-1.18,0.12-2.87,2.92-3.43,3.84c-0.28-0.05-0.26-0.04-0.41-0.14c-0.32-0.14-0.3-0.23-0.55-0.41c-0.21-3.24,0.44-6.25,0.55-9.33
			c3.62,0.36,6.73,2.41,10.43,2.61c0-0.64,0-1.51,0.26-1.92c-0.03-0.32-0.03-0.38-0.14-0.55c-0.5-0.4-3.29-1.06-4.12-1.09v-0.14
			h-0.14c0.5-4.08-0.65-7.22-3.44-8.38c-1.56-0.28-3.11-0.55-4.67-0.83c-0.8-0.29-1.18-0.92-1.78-1.37c-0.2-1.32-0.46-2.8,0.55-3.57
			c-0.08-0.5-0.11-0.58-0.41-0.83v-0.14h-0.14c-0.46,0.79-0.85,1.71-1.1,2.75c-0.81,3.41,1.08,6.3,3.16,7
			c1.37,0.22,2.74,0.46,4.12,0.68c1.09,0.42,1.57,1.31,2.33,2.06c-0.03,1.78-1.74,1.97-3.16,1.51c-2.22-0.72-4.58-1.22-6.86-2.05
			c-0.6-0.22-1.15-0.59-1.92-0.69c-0.09,0.87-0.19,1.74-0.28,2.61c1.92,0.59,3.85,1.19,5.76,1.79
			C65.05,207.58,63.14,213.4,65.55,217.14z"/>
		<path class="st0" d="M82.7,292.91c0.84,0.44,1.01,2.37,1.37,3.3c0.74,1.93,1.81,4.47,3.58,5.36v0.14h0.29
			c-0.23-1.55-1.1-2.95-1.65-4.26c-1.21-2.96-2.16-6.08-3.16-9.06c-0.58-1.74-0.97-3.43-1.51-5.08c-0.28-0.85-0.22-1.82-0.69-2.48
			v-0.41c0.93,0.34,2.36,0.3,3.16,0.83h0.7c-0.16-0.71-0.3-1.91-0.7-2.48c-0.41-0.68-3.08-0.68-3.84-1.22
			c-1.08-0.85-2.11-3.29-2.89-4.53c-1.94-3.08-4.51-6.36-7.41-8.52c-1.54-1.13-2.61-2.33-5.36-2.33c-0.32,0.22-0.64,0.46-0.96,0.68
			c-0.62,2.74,0.48,7.79,2.05,9.05v0.27c-0.66-0.18-1.36-0.53-1.78-0.95h-0.13c0.03,0.79,0.18,1.81,0.54,2.33
			c0.16,0.68,1.26,1.22,1.92,1.37c0.86,3.59,2.05,7.29,3.29,10.58c1,2.63,1.51,5.13,2.6,7.67c0.54,1.24,1.82,2.14,2.2,3.44h0.41
			c-0.32-1.16-0.95-2.24-1.37-3.29c-1.26-3.03-2.26-6.26-3.3-9.32c-0.67-2.03-1.13-3.98-1.78-5.91c-0.24-0.72-0.17-1.48-0.54-2.06
			v-0.13c0.93,0.17,1.49,0.66,2.19,0.96c1.6,0.69,3.13,0.96,4.8,1.65c1.22,0.51,2.76,1.2,4.26,1.37c0.17,1.25,0.88,4.51,1.51,5.36
			v0.4c-2.09-1.43-2.05-3.47-5.77-3.16c-0.18,0.22-0.44,0.41-0.68,0.55c-0.34,0.85-0.36,2.24,0,3.15c0.89,2.24,3.72,6.91,6.04,7.56
			C80.99,294.38,82.29,293.59,82.7,292.91z M79.14,277.26c-1.45-0.1-2.68-0.67-3.84-1.09c-3.1-1.15-5.91-2.14-8.64-3.44
			c-0.33-1.24-2.64-5.7-1.38-7.26c0.09-0.14,0.18-0.28,0.28-0.42c0.28-0.07,0.26-0.04,0.41-0.13c4.23,0.5,8.47,5.65,10.57,8.51
			c0.82,1.12,1.49,2.77,2.61,3.57L79.14,277.26L79.14,277.26z M75.58,287.55c0.01-1.35,0.53-1.35,1.09-2.06
			c0.32-0.03,0.39-0.03,0.55-0.13c2.13,0.02,2.61,0.97,3.85,1.79c0.2,0.81,0.33,1.16,0.27,2.04c-0.41,0.51-0.82,1.01-1.23,1.51
			c-0.37,0.27-0.77,0.38-1.1,0.68C76.65,291.33,76.56,289.01,75.58,287.55z"/>
		<path class="st0" d="M318.48,108.05c1.59,2.13,3.37,4.34,6.3,5.08c3.32,0.83,4.93-3.07,6.18-4.54c1.28-1.51,4.1-1.87,5.08-3.84
			c0.36-0.71,0.12-2.13-0.13-2.74c-0.63-1.47-3.7-5.62-4.94-6.44c0.08-0.83,0.47-0.86,0.82-1.37c0.86,0.42,1.17,1.63,1.79,2.33
			c0.79,0.9,1.89,1.38,2.75,2.2c1.3,0.01,2.09-0.33,2.74-0.96h0.14c-0.33-0.92-1.54-1.55-2.19-2.2c-1.43-1.44-2.53-3.25-3.98-4.66
			v-0.14c-0.71,0.25-3.12,2.38-3.57,3.02c-0.87-0.33-1.36-1.27-2.06-1.78c-2.34-1.76-4.55-4.05-8.64-3.98
			c-0.51,0.39-1.28,0.41-1.93,0.68c-1.84,0.8-3.75,2.39-4.52,4.26c-0.86,2.09,0.01,5.17,0.68,6.72
			C314.35,102.82,316.57,105.47,318.48,108.05z M317.79,88.97c2.34,0.02,3.45,1.59,4.81,2.62c3.35,2.51,6.16,5.64,8.64,9.05
			c1.11,1.52,2.62,2.38,2.6,5.07c-0.42,0.4-0.54,0.78-1.24,0.96c-0.13,0.11-0.04,0.05-0.27,0.14c-1.94-3.23-4.74-5.94-7-8.92
			c-0.73-0.98-1.88-1.77-2.61-2.74c-1.26-1.66-2.75-3-4.13-4.53c-0.39-0.46-0.58-0.89-1.08-1.24
			C317.65,89.08,317.64,89.18,317.79,88.97z M314.36,90.9h0.54c0.68,1.03,1.87,1.75,2.62,2.74c2.05,2.72,4.55,5.1,6.58,7.82
			c1.25,1.68,2.64,3.26,3.84,4.94c0.62,0.86,1.09,1.96,1.93,2.61c-0.14,0.63-0.4,0.92-0.68,1.38c-2.43,0.57-3.63-1.02-4.94-2.34
			c-3.25-3.24-5.45-7.26-7.97-11.25C315.42,95.42,313.21,92.86,314.36,90.9z"/>
	</g>
</g>
<circle class="st1" cx="223.79" cy="224" r="205.5"/>
<line class="st1" x1="375.5" y1="366.5" x2="518" y2="509"/>
</svg>
